G04 #@! TF.GenerationSoftware,KiCad,Pcbnew,8.0.6*
G04 #@! TF.CreationDate,2024-11-16T10:54:58+01:00*
G04 #@! TF.ProjectId,SwitchPCB,53776974-6368-4504-9342-2e6b69636164,rev?*
G04 #@! TF.SameCoordinates,Original*
G04 #@! TF.FileFunction,Legend,Top*
G04 #@! TF.FilePolarity,Positive*
%FSLAX46Y46*%
G04 Gerber Fmt 4.6, Leading zero omitted, Abs format (unit mm)*
G04 Created by KiCad (PCBNEW 8.0.6) date 2024-11-16 10:54:58*
%MOMM*%
%LPD*%
G01*
G04 APERTURE LIST*
%ADD10C,0.150000*%
%ADD11C,0.120000*%
G04 APERTURE END LIST*
D10*
X152436667Y-91332200D02*
X152579524Y-91379819D01*
X152579524Y-91379819D02*
X152817619Y-91379819D01*
X152817619Y-91379819D02*
X152912857Y-91332200D01*
X152912857Y-91332200D02*
X152960476Y-91284580D01*
X152960476Y-91284580D02*
X153008095Y-91189342D01*
X153008095Y-91189342D02*
X153008095Y-91094104D01*
X153008095Y-91094104D02*
X152960476Y-90998866D01*
X152960476Y-90998866D02*
X152912857Y-90951247D01*
X152912857Y-90951247D02*
X152817619Y-90903628D01*
X152817619Y-90903628D02*
X152627143Y-90856009D01*
X152627143Y-90856009D02*
X152531905Y-90808390D01*
X152531905Y-90808390D02*
X152484286Y-90760771D01*
X152484286Y-90760771D02*
X152436667Y-90665533D01*
X152436667Y-90665533D02*
X152436667Y-90570295D01*
X152436667Y-90570295D02*
X152484286Y-90475057D01*
X152484286Y-90475057D02*
X152531905Y-90427438D01*
X152531905Y-90427438D02*
X152627143Y-90379819D01*
X152627143Y-90379819D02*
X152865238Y-90379819D01*
X152865238Y-90379819D02*
X153008095Y-90427438D01*
X153341429Y-90379819D02*
X153579524Y-91379819D01*
X153579524Y-91379819D02*
X153770000Y-90665533D01*
X153770000Y-90665533D02*
X153960476Y-91379819D01*
X153960476Y-91379819D02*
X154198572Y-90379819D01*
X154627143Y-91379819D02*
X154817619Y-91379819D01*
X154817619Y-91379819D02*
X154912857Y-91332200D01*
X154912857Y-91332200D02*
X154960476Y-91284580D01*
X154960476Y-91284580D02*
X155055714Y-91141723D01*
X155055714Y-91141723D02*
X155103333Y-90951247D01*
X155103333Y-90951247D02*
X155103333Y-90570295D01*
X155103333Y-90570295D02*
X155055714Y-90475057D01*
X155055714Y-90475057D02*
X155008095Y-90427438D01*
X155008095Y-90427438D02*
X154912857Y-90379819D01*
X154912857Y-90379819D02*
X154722381Y-90379819D01*
X154722381Y-90379819D02*
X154627143Y-90427438D01*
X154627143Y-90427438D02*
X154579524Y-90475057D01*
X154579524Y-90475057D02*
X154531905Y-90570295D01*
X154531905Y-90570295D02*
X154531905Y-90808390D01*
X154531905Y-90808390D02*
X154579524Y-90903628D01*
X154579524Y-90903628D02*
X154627143Y-90951247D01*
X154627143Y-90951247D02*
X154722381Y-90998866D01*
X154722381Y-90998866D02*
X154912857Y-90998866D01*
X154912857Y-90998866D02*
X155008095Y-90951247D01*
X155008095Y-90951247D02*
X155055714Y-90903628D01*
X155055714Y-90903628D02*
X155103333Y-90808390D01*
X190060476Y-91332200D02*
X190203333Y-91379819D01*
X190203333Y-91379819D02*
X190441428Y-91379819D01*
X190441428Y-91379819D02*
X190536666Y-91332200D01*
X190536666Y-91332200D02*
X190584285Y-91284580D01*
X190584285Y-91284580D02*
X190631904Y-91189342D01*
X190631904Y-91189342D02*
X190631904Y-91094104D01*
X190631904Y-91094104D02*
X190584285Y-90998866D01*
X190584285Y-90998866D02*
X190536666Y-90951247D01*
X190536666Y-90951247D02*
X190441428Y-90903628D01*
X190441428Y-90903628D02*
X190250952Y-90856009D01*
X190250952Y-90856009D02*
X190155714Y-90808390D01*
X190155714Y-90808390D02*
X190108095Y-90760771D01*
X190108095Y-90760771D02*
X190060476Y-90665533D01*
X190060476Y-90665533D02*
X190060476Y-90570295D01*
X190060476Y-90570295D02*
X190108095Y-90475057D01*
X190108095Y-90475057D02*
X190155714Y-90427438D01*
X190155714Y-90427438D02*
X190250952Y-90379819D01*
X190250952Y-90379819D02*
X190489047Y-90379819D01*
X190489047Y-90379819D02*
X190631904Y-90427438D01*
X190965238Y-90379819D02*
X191203333Y-91379819D01*
X191203333Y-91379819D02*
X191393809Y-90665533D01*
X191393809Y-90665533D02*
X191584285Y-91379819D01*
X191584285Y-91379819D02*
X191822381Y-90379819D01*
X192727142Y-91379819D02*
X192155714Y-91379819D01*
X192441428Y-91379819D02*
X192441428Y-90379819D01*
X192441428Y-90379819D02*
X192346190Y-90522676D01*
X192346190Y-90522676D02*
X192250952Y-90617914D01*
X192250952Y-90617914D02*
X192155714Y-90665533D01*
X193679523Y-91379819D02*
X193108095Y-91379819D01*
X193393809Y-91379819D02*
X193393809Y-90379819D01*
X193393809Y-90379819D02*
X193298571Y-90522676D01*
X193298571Y-90522676D02*
X193203333Y-90617914D01*
X193203333Y-90617914D02*
X193108095Y-90665533D01*
X133386667Y-72282200D02*
X133529524Y-72329819D01*
X133529524Y-72329819D02*
X133767619Y-72329819D01*
X133767619Y-72329819D02*
X133862857Y-72282200D01*
X133862857Y-72282200D02*
X133910476Y-72234580D01*
X133910476Y-72234580D02*
X133958095Y-72139342D01*
X133958095Y-72139342D02*
X133958095Y-72044104D01*
X133958095Y-72044104D02*
X133910476Y-71948866D01*
X133910476Y-71948866D02*
X133862857Y-71901247D01*
X133862857Y-71901247D02*
X133767619Y-71853628D01*
X133767619Y-71853628D02*
X133577143Y-71806009D01*
X133577143Y-71806009D02*
X133481905Y-71758390D01*
X133481905Y-71758390D02*
X133434286Y-71710771D01*
X133434286Y-71710771D02*
X133386667Y-71615533D01*
X133386667Y-71615533D02*
X133386667Y-71520295D01*
X133386667Y-71520295D02*
X133434286Y-71425057D01*
X133434286Y-71425057D02*
X133481905Y-71377438D01*
X133481905Y-71377438D02*
X133577143Y-71329819D01*
X133577143Y-71329819D02*
X133815238Y-71329819D01*
X133815238Y-71329819D02*
X133958095Y-71377438D01*
X134291429Y-71329819D02*
X134529524Y-72329819D01*
X134529524Y-72329819D02*
X134720000Y-71615533D01*
X134720000Y-71615533D02*
X134910476Y-72329819D01*
X134910476Y-72329819D02*
X135148572Y-71329819D01*
X135958095Y-71663152D02*
X135958095Y-72329819D01*
X135720000Y-71282200D02*
X135481905Y-71996485D01*
X135481905Y-71996485D02*
X136100952Y-71996485D01*
X171486667Y-72282200D02*
X171629524Y-72329819D01*
X171629524Y-72329819D02*
X171867619Y-72329819D01*
X171867619Y-72329819D02*
X171962857Y-72282200D01*
X171962857Y-72282200D02*
X172010476Y-72234580D01*
X172010476Y-72234580D02*
X172058095Y-72139342D01*
X172058095Y-72139342D02*
X172058095Y-72044104D01*
X172058095Y-72044104D02*
X172010476Y-71948866D01*
X172010476Y-71948866D02*
X171962857Y-71901247D01*
X171962857Y-71901247D02*
X171867619Y-71853628D01*
X171867619Y-71853628D02*
X171677143Y-71806009D01*
X171677143Y-71806009D02*
X171581905Y-71758390D01*
X171581905Y-71758390D02*
X171534286Y-71710771D01*
X171534286Y-71710771D02*
X171486667Y-71615533D01*
X171486667Y-71615533D02*
X171486667Y-71520295D01*
X171486667Y-71520295D02*
X171534286Y-71425057D01*
X171534286Y-71425057D02*
X171581905Y-71377438D01*
X171581905Y-71377438D02*
X171677143Y-71329819D01*
X171677143Y-71329819D02*
X171915238Y-71329819D01*
X171915238Y-71329819D02*
X172058095Y-71377438D01*
X172391429Y-71329819D02*
X172629524Y-72329819D01*
X172629524Y-72329819D02*
X172820000Y-71615533D01*
X172820000Y-71615533D02*
X173010476Y-72329819D01*
X173010476Y-72329819D02*
X173248572Y-71329819D01*
X174058095Y-71329819D02*
X173867619Y-71329819D01*
X173867619Y-71329819D02*
X173772381Y-71377438D01*
X173772381Y-71377438D02*
X173724762Y-71425057D01*
X173724762Y-71425057D02*
X173629524Y-71567914D01*
X173629524Y-71567914D02*
X173581905Y-71758390D01*
X173581905Y-71758390D02*
X173581905Y-72139342D01*
X173581905Y-72139342D02*
X173629524Y-72234580D01*
X173629524Y-72234580D02*
X173677143Y-72282200D01*
X173677143Y-72282200D02*
X173772381Y-72329819D01*
X173772381Y-72329819D02*
X173962857Y-72329819D01*
X173962857Y-72329819D02*
X174058095Y-72282200D01*
X174058095Y-72282200D02*
X174105714Y-72234580D01*
X174105714Y-72234580D02*
X174153333Y-72139342D01*
X174153333Y-72139342D02*
X174153333Y-71901247D01*
X174153333Y-71901247D02*
X174105714Y-71806009D01*
X174105714Y-71806009D02*
X174058095Y-71758390D01*
X174058095Y-71758390D02*
X173962857Y-71710771D01*
X173962857Y-71710771D02*
X173772381Y-71710771D01*
X173772381Y-71710771D02*
X173677143Y-71758390D01*
X173677143Y-71758390D02*
X173629524Y-71806009D01*
X173629524Y-71806009D02*
X173581905Y-71901247D01*
X152436667Y-72282200D02*
X152579524Y-72329819D01*
X152579524Y-72329819D02*
X152817619Y-72329819D01*
X152817619Y-72329819D02*
X152912857Y-72282200D01*
X152912857Y-72282200D02*
X152960476Y-72234580D01*
X152960476Y-72234580D02*
X153008095Y-72139342D01*
X153008095Y-72139342D02*
X153008095Y-72044104D01*
X153008095Y-72044104D02*
X152960476Y-71948866D01*
X152960476Y-71948866D02*
X152912857Y-71901247D01*
X152912857Y-71901247D02*
X152817619Y-71853628D01*
X152817619Y-71853628D02*
X152627143Y-71806009D01*
X152627143Y-71806009D02*
X152531905Y-71758390D01*
X152531905Y-71758390D02*
X152484286Y-71710771D01*
X152484286Y-71710771D02*
X152436667Y-71615533D01*
X152436667Y-71615533D02*
X152436667Y-71520295D01*
X152436667Y-71520295D02*
X152484286Y-71425057D01*
X152484286Y-71425057D02*
X152531905Y-71377438D01*
X152531905Y-71377438D02*
X152627143Y-71329819D01*
X152627143Y-71329819D02*
X152865238Y-71329819D01*
X152865238Y-71329819D02*
X153008095Y-71377438D01*
X153341429Y-71329819D02*
X153579524Y-72329819D01*
X153579524Y-72329819D02*
X153770000Y-71615533D01*
X153770000Y-71615533D02*
X153960476Y-72329819D01*
X153960476Y-72329819D02*
X154198572Y-71329819D01*
X155055714Y-71329819D02*
X154579524Y-71329819D01*
X154579524Y-71329819D02*
X154531905Y-71806009D01*
X154531905Y-71806009D02*
X154579524Y-71758390D01*
X154579524Y-71758390D02*
X154674762Y-71710771D01*
X154674762Y-71710771D02*
X154912857Y-71710771D01*
X154912857Y-71710771D02*
X155008095Y-71758390D01*
X155008095Y-71758390D02*
X155055714Y-71806009D01*
X155055714Y-71806009D02*
X155103333Y-71901247D01*
X155103333Y-71901247D02*
X155103333Y-72139342D01*
X155103333Y-72139342D02*
X155055714Y-72234580D01*
X155055714Y-72234580D02*
X155008095Y-72282200D01*
X155008095Y-72282200D02*
X154912857Y-72329819D01*
X154912857Y-72329819D02*
X154674762Y-72329819D01*
X154674762Y-72329819D02*
X154579524Y-72282200D01*
X154579524Y-72282200D02*
X154531905Y-72234580D01*
X133386667Y-91332200D02*
X133529524Y-91379819D01*
X133529524Y-91379819D02*
X133767619Y-91379819D01*
X133767619Y-91379819D02*
X133862857Y-91332200D01*
X133862857Y-91332200D02*
X133910476Y-91284580D01*
X133910476Y-91284580D02*
X133958095Y-91189342D01*
X133958095Y-91189342D02*
X133958095Y-91094104D01*
X133958095Y-91094104D02*
X133910476Y-90998866D01*
X133910476Y-90998866D02*
X133862857Y-90951247D01*
X133862857Y-90951247D02*
X133767619Y-90903628D01*
X133767619Y-90903628D02*
X133577143Y-90856009D01*
X133577143Y-90856009D02*
X133481905Y-90808390D01*
X133481905Y-90808390D02*
X133434286Y-90760771D01*
X133434286Y-90760771D02*
X133386667Y-90665533D01*
X133386667Y-90665533D02*
X133386667Y-90570295D01*
X133386667Y-90570295D02*
X133434286Y-90475057D01*
X133434286Y-90475057D02*
X133481905Y-90427438D01*
X133481905Y-90427438D02*
X133577143Y-90379819D01*
X133577143Y-90379819D02*
X133815238Y-90379819D01*
X133815238Y-90379819D02*
X133958095Y-90427438D01*
X134291429Y-90379819D02*
X134529524Y-91379819D01*
X134529524Y-91379819D02*
X134720000Y-90665533D01*
X134720000Y-90665533D02*
X134910476Y-91379819D01*
X134910476Y-91379819D02*
X135148572Y-90379819D01*
X135672381Y-90808390D02*
X135577143Y-90760771D01*
X135577143Y-90760771D02*
X135529524Y-90713152D01*
X135529524Y-90713152D02*
X135481905Y-90617914D01*
X135481905Y-90617914D02*
X135481905Y-90570295D01*
X135481905Y-90570295D02*
X135529524Y-90475057D01*
X135529524Y-90475057D02*
X135577143Y-90427438D01*
X135577143Y-90427438D02*
X135672381Y-90379819D01*
X135672381Y-90379819D02*
X135862857Y-90379819D01*
X135862857Y-90379819D02*
X135958095Y-90427438D01*
X135958095Y-90427438D02*
X136005714Y-90475057D01*
X136005714Y-90475057D02*
X136053333Y-90570295D01*
X136053333Y-90570295D02*
X136053333Y-90617914D01*
X136053333Y-90617914D02*
X136005714Y-90713152D01*
X136005714Y-90713152D02*
X135958095Y-90760771D01*
X135958095Y-90760771D02*
X135862857Y-90808390D01*
X135862857Y-90808390D02*
X135672381Y-90808390D01*
X135672381Y-90808390D02*
X135577143Y-90856009D01*
X135577143Y-90856009D02*
X135529524Y-90903628D01*
X135529524Y-90903628D02*
X135481905Y-90998866D01*
X135481905Y-90998866D02*
X135481905Y-91189342D01*
X135481905Y-91189342D02*
X135529524Y-91284580D01*
X135529524Y-91284580D02*
X135577143Y-91332200D01*
X135577143Y-91332200D02*
X135672381Y-91379819D01*
X135672381Y-91379819D02*
X135862857Y-91379819D01*
X135862857Y-91379819D02*
X135958095Y-91332200D01*
X135958095Y-91332200D02*
X136005714Y-91284580D01*
X136005714Y-91284580D02*
X136053333Y-91189342D01*
X136053333Y-91189342D02*
X136053333Y-90998866D01*
X136053333Y-90998866D02*
X136005714Y-90903628D01*
X136005714Y-90903628D02*
X135958095Y-90856009D01*
X135958095Y-90856009D02*
X135862857Y-90808390D01*
X190536667Y-72282200D02*
X190679524Y-72329819D01*
X190679524Y-72329819D02*
X190917619Y-72329819D01*
X190917619Y-72329819D02*
X191012857Y-72282200D01*
X191012857Y-72282200D02*
X191060476Y-72234580D01*
X191060476Y-72234580D02*
X191108095Y-72139342D01*
X191108095Y-72139342D02*
X191108095Y-72044104D01*
X191108095Y-72044104D02*
X191060476Y-71948866D01*
X191060476Y-71948866D02*
X191012857Y-71901247D01*
X191012857Y-71901247D02*
X190917619Y-71853628D01*
X190917619Y-71853628D02*
X190727143Y-71806009D01*
X190727143Y-71806009D02*
X190631905Y-71758390D01*
X190631905Y-71758390D02*
X190584286Y-71710771D01*
X190584286Y-71710771D02*
X190536667Y-71615533D01*
X190536667Y-71615533D02*
X190536667Y-71520295D01*
X190536667Y-71520295D02*
X190584286Y-71425057D01*
X190584286Y-71425057D02*
X190631905Y-71377438D01*
X190631905Y-71377438D02*
X190727143Y-71329819D01*
X190727143Y-71329819D02*
X190965238Y-71329819D01*
X190965238Y-71329819D02*
X191108095Y-71377438D01*
X191441429Y-71329819D02*
X191679524Y-72329819D01*
X191679524Y-72329819D02*
X191870000Y-71615533D01*
X191870000Y-71615533D02*
X192060476Y-72329819D01*
X192060476Y-72329819D02*
X192298572Y-71329819D01*
X192584286Y-71329819D02*
X193250952Y-71329819D01*
X193250952Y-71329819D02*
X192822381Y-72329819D01*
X171010476Y-91332200D02*
X171153333Y-91379819D01*
X171153333Y-91379819D02*
X171391428Y-91379819D01*
X171391428Y-91379819D02*
X171486666Y-91332200D01*
X171486666Y-91332200D02*
X171534285Y-91284580D01*
X171534285Y-91284580D02*
X171581904Y-91189342D01*
X171581904Y-91189342D02*
X171581904Y-91094104D01*
X171581904Y-91094104D02*
X171534285Y-90998866D01*
X171534285Y-90998866D02*
X171486666Y-90951247D01*
X171486666Y-90951247D02*
X171391428Y-90903628D01*
X171391428Y-90903628D02*
X171200952Y-90856009D01*
X171200952Y-90856009D02*
X171105714Y-90808390D01*
X171105714Y-90808390D02*
X171058095Y-90760771D01*
X171058095Y-90760771D02*
X171010476Y-90665533D01*
X171010476Y-90665533D02*
X171010476Y-90570295D01*
X171010476Y-90570295D02*
X171058095Y-90475057D01*
X171058095Y-90475057D02*
X171105714Y-90427438D01*
X171105714Y-90427438D02*
X171200952Y-90379819D01*
X171200952Y-90379819D02*
X171439047Y-90379819D01*
X171439047Y-90379819D02*
X171581904Y-90427438D01*
X171915238Y-90379819D02*
X172153333Y-91379819D01*
X172153333Y-91379819D02*
X172343809Y-90665533D01*
X172343809Y-90665533D02*
X172534285Y-91379819D01*
X172534285Y-91379819D02*
X172772381Y-90379819D01*
X173677142Y-91379819D02*
X173105714Y-91379819D01*
X173391428Y-91379819D02*
X173391428Y-90379819D01*
X173391428Y-90379819D02*
X173296190Y-90522676D01*
X173296190Y-90522676D02*
X173200952Y-90617914D01*
X173200952Y-90617914D02*
X173105714Y-90665533D01*
X174296190Y-90379819D02*
X174391428Y-90379819D01*
X174391428Y-90379819D02*
X174486666Y-90427438D01*
X174486666Y-90427438D02*
X174534285Y-90475057D01*
X174534285Y-90475057D02*
X174581904Y-90570295D01*
X174581904Y-90570295D02*
X174629523Y-90760771D01*
X174629523Y-90760771D02*
X174629523Y-90998866D01*
X174629523Y-90998866D02*
X174581904Y-91189342D01*
X174581904Y-91189342D02*
X174534285Y-91284580D01*
X174534285Y-91284580D02*
X174486666Y-91332200D01*
X174486666Y-91332200D02*
X174391428Y-91379819D01*
X174391428Y-91379819D02*
X174296190Y-91379819D01*
X174296190Y-91379819D02*
X174200952Y-91332200D01*
X174200952Y-91332200D02*
X174153333Y-91284580D01*
X174153333Y-91284580D02*
X174105714Y-91189342D01*
X174105714Y-91189342D02*
X174058095Y-90998866D01*
X174058095Y-90998866D02*
X174058095Y-90760771D01*
X174058095Y-90760771D02*
X174105714Y-90570295D01*
X174105714Y-90570295D02*
X174153333Y-90475057D01*
X174153333Y-90475057D02*
X174200952Y-90427438D01*
X174200952Y-90427438D02*
X174296190Y-90379819D01*
X171486667Y-53232200D02*
X171629524Y-53279819D01*
X171629524Y-53279819D02*
X171867619Y-53279819D01*
X171867619Y-53279819D02*
X171962857Y-53232200D01*
X171962857Y-53232200D02*
X172010476Y-53184580D01*
X172010476Y-53184580D02*
X172058095Y-53089342D01*
X172058095Y-53089342D02*
X172058095Y-52994104D01*
X172058095Y-52994104D02*
X172010476Y-52898866D01*
X172010476Y-52898866D02*
X171962857Y-52851247D01*
X171962857Y-52851247D02*
X171867619Y-52803628D01*
X171867619Y-52803628D02*
X171677143Y-52756009D01*
X171677143Y-52756009D02*
X171581905Y-52708390D01*
X171581905Y-52708390D02*
X171534286Y-52660771D01*
X171534286Y-52660771D02*
X171486667Y-52565533D01*
X171486667Y-52565533D02*
X171486667Y-52470295D01*
X171486667Y-52470295D02*
X171534286Y-52375057D01*
X171534286Y-52375057D02*
X171581905Y-52327438D01*
X171581905Y-52327438D02*
X171677143Y-52279819D01*
X171677143Y-52279819D02*
X171915238Y-52279819D01*
X171915238Y-52279819D02*
X172058095Y-52327438D01*
X172391429Y-52279819D02*
X172629524Y-53279819D01*
X172629524Y-53279819D02*
X172820000Y-52565533D01*
X172820000Y-52565533D02*
X173010476Y-53279819D01*
X173010476Y-53279819D02*
X173248572Y-52279819D01*
X173534286Y-52279819D02*
X174153333Y-52279819D01*
X174153333Y-52279819D02*
X173820000Y-52660771D01*
X173820000Y-52660771D02*
X173962857Y-52660771D01*
X173962857Y-52660771D02*
X174058095Y-52708390D01*
X174058095Y-52708390D02*
X174105714Y-52756009D01*
X174105714Y-52756009D02*
X174153333Y-52851247D01*
X174153333Y-52851247D02*
X174153333Y-53089342D01*
X174153333Y-53089342D02*
X174105714Y-53184580D01*
X174105714Y-53184580D02*
X174058095Y-53232200D01*
X174058095Y-53232200D02*
X173962857Y-53279819D01*
X173962857Y-53279819D02*
X173677143Y-53279819D01*
X173677143Y-53279819D02*
X173581905Y-53232200D01*
X173581905Y-53232200D02*
X173534286Y-53184580D01*
X133386667Y-53232200D02*
X133529524Y-53279819D01*
X133529524Y-53279819D02*
X133767619Y-53279819D01*
X133767619Y-53279819D02*
X133862857Y-53232200D01*
X133862857Y-53232200D02*
X133910476Y-53184580D01*
X133910476Y-53184580D02*
X133958095Y-53089342D01*
X133958095Y-53089342D02*
X133958095Y-52994104D01*
X133958095Y-52994104D02*
X133910476Y-52898866D01*
X133910476Y-52898866D02*
X133862857Y-52851247D01*
X133862857Y-52851247D02*
X133767619Y-52803628D01*
X133767619Y-52803628D02*
X133577143Y-52756009D01*
X133577143Y-52756009D02*
X133481905Y-52708390D01*
X133481905Y-52708390D02*
X133434286Y-52660771D01*
X133434286Y-52660771D02*
X133386667Y-52565533D01*
X133386667Y-52565533D02*
X133386667Y-52470295D01*
X133386667Y-52470295D02*
X133434286Y-52375057D01*
X133434286Y-52375057D02*
X133481905Y-52327438D01*
X133481905Y-52327438D02*
X133577143Y-52279819D01*
X133577143Y-52279819D02*
X133815238Y-52279819D01*
X133815238Y-52279819D02*
X133958095Y-52327438D01*
X134291429Y-52279819D02*
X134529524Y-53279819D01*
X134529524Y-53279819D02*
X134720000Y-52565533D01*
X134720000Y-52565533D02*
X134910476Y-53279819D01*
X134910476Y-53279819D02*
X135148572Y-52279819D01*
X136053333Y-53279819D02*
X135481905Y-53279819D01*
X135767619Y-53279819D02*
X135767619Y-52279819D01*
X135767619Y-52279819D02*
X135672381Y-52422676D01*
X135672381Y-52422676D02*
X135577143Y-52517914D01*
X135577143Y-52517914D02*
X135481905Y-52565533D01*
X152436667Y-53232200D02*
X152579524Y-53279819D01*
X152579524Y-53279819D02*
X152817619Y-53279819D01*
X152817619Y-53279819D02*
X152912857Y-53232200D01*
X152912857Y-53232200D02*
X152960476Y-53184580D01*
X152960476Y-53184580D02*
X153008095Y-53089342D01*
X153008095Y-53089342D02*
X153008095Y-52994104D01*
X153008095Y-52994104D02*
X152960476Y-52898866D01*
X152960476Y-52898866D02*
X152912857Y-52851247D01*
X152912857Y-52851247D02*
X152817619Y-52803628D01*
X152817619Y-52803628D02*
X152627143Y-52756009D01*
X152627143Y-52756009D02*
X152531905Y-52708390D01*
X152531905Y-52708390D02*
X152484286Y-52660771D01*
X152484286Y-52660771D02*
X152436667Y-52565533D01*
X152436667Y-52565533D02*
X152436667Y-52470295D01*
X152436667Y-52470295D02*
X152484286Y-52375057D01*
X152484286Y-52375057D02*
X152531905Y-52327438D01*
X152531905Y-52327438D02*
X152627143Y-52279819D01*
X152627143Y-52279819D02*
X152865238Y-52279819D01*
X152865238Y-52279819D02*
X153008095Y-52327438D01*
X153341429Y-52279819D02*
X153579524Y-53279819D01*
X153579524Y-53279819D02*
X153770000Y-52565533D01*
X153770000Y-52565533D02*
X153960476Y-53279819D01*
X153960476Y-53279819D02*
X154198572Y-52279819D01*
X154531905Y-52375057D02*
X154579524Y-52327438D01*
X154579524Y-52327438D02*
X154674762Y-52279819D01*
X154674762Y-52279819D02*
X154912857Y-52279819D01*
X154912857Y-52279819D02*
X155008095Y-52327438D01*
X155008095Y-52327438D02*
X155055714Y-52375057D01*
X155055714Y-52375057D02*
X155103333Y-52470295D01*
X155103333Y-52470295D02*
X155103333Y-52565533D01*
X155103333Y-52565533D02*
X155055714Y-52708390D01*
X155055714Y-52708390D02*
X154484286Y-53279819D01*
X154484286Y-53279819D02*
X155103333Y-53279819D01*
X199524819Y-57446428D02*
X199048628Y-57779761D01*
X199524819Y-58017856D02*
X198524819Y-58017856D01*
X198524819Y-58017856D02*
X198524819Y-57636904D01*
X198524819Y-57636904D02*
X198572438Y-57541666D01*
X198572438Y-57541666D02*
X198620057Y-57494047D01*
X198620057Y-57494047D02*
X198715295Y-57446428D01*
X198715295Y-57446428D02*
X198858152Y-57446428D01*
X198858152Y-57446428D02*
X198953390Y-57494047D01*
X198953390Y-57494047D02*
X199001009Y-57541666D01*
X199001009Y-57541666D02*
X199048628Y-57636904D01*
X199048628Y-57636904D02*
X199048628Y-58017856D01*
X198524819Y-56827380D02*
X198524819Y-56636904D01*
X198524819Y-56636904D02*
X198572438Y-56541666D01*
X198572438Y-56541666D02*
X198667676Y-56446428D01*
X198667676Y-56446428D02*
X198858152Y-56398809D01*
X198858152Y-56398809D02*
X199191485Y-56398809D01*
X199191485Y-56398809D02*
X199381961Y-56446428D01*
X199381961Y-56446428D02*
X199477200Y-56541666D01*
X199477200Y-56541666D02*
X199524819Y-56636904D01*
X199524819Y-56636904D02*
X199524819Y-56827380D01*
X199524819Y-56827380D02*
X199477200Y-56922618D01*
X199477200Y-56922618D02*
X199381961Y-57017856D01*
X199381961Y-57017856D02*
X199191485Y-57065475D01*
X199191485Y-57065475D02*
X198858152Y-57065475D01*
X198858152Y-57065475D02*
X198667676Y-57017856D01*
X198667676Y-57017856D02*
X198572438Y-56922618D01*
X198572438Y-56922618D02*
X198524819Y-56827380D01*
X198524819Y-56113094D02*
X198524819Y-55541666D01*
X199524819Y-55827380D02*
X198524819Y-55827380D01*
X199524819Y-54684523D02*
X199524819Y-55255951D01*
X199524819Y-54970237D02*
X198524819Y-54970237D01*
X198524819Y-54970237D02*
X198667676Y-55065475D01*
X198667676Y-55065475D02*
X198762914Y-55160713D01*
X198762914Y-55160713D02*
X198810533Y-55255951D01*
X122866666Y-99654819D02*
X122533333Y-99178628D01*
X122295238Y-99654819D02*
X122295238Y-98654819D01*
X122295238Y-98654819D02*
X122676190Y-98654819D01*
X122676190Y-98654819D02*
X122771428Y-98702438D01*
X122771428Y-98702438D02*
X122819047Y-98750057D01*
X122819047Y-98750057D02*
X122866666Y-98845295D01*
X122866666Y-98845295D02*
X122866666Y-98988152D01*
X122866666Y-98988152D02*
X122819047Y-99083390D01*
X122819047Y-99083390D02*
X122771428Y-99131009D01*
X122771428Y-99131009D02*
X122676190Y-99178628D01*
X122676190Y-99178628D02*
X122295238Y-99178628D01*
X123295238Y-99131009D02*
X123628571Y-99131009D01*
X123771428Y-99654819D02*
X123295238Y-99654819D01*
X123295238Y-99654819D02*
X123295238Y-98654819D01*
X123295238Y-98654819D02*
X123771428Y-98654819D01*
X124533333Y-99131009D02*
X124200000Y-99131009D01*
X124200000Y-99654819D02*
X124200000Y-98654819D01*
X124200000Y-98654819D02*
X124676190Y-98654819D01*
X125200000Y-98654819D02*
X125200000Y-98892914D01*
X124961905Y-98797676D02*
X125200000Y-98892914D01*
X125200000Y-98892914D02*
X125438095Y-98797676D01*
X125057143Y-99083390D02*
X125200000Y-98892914D01*
X125200000Y-98892914D02*
X125342857Y-99083390D01*
X125961905Y-98654819D02*
X125961905Y-98892914D01*
X125723810Y-98797676D02*
X125961905Y-98892914D01*
X125961905Y-98892914D02*
X126200000Y-98797676D01*
X125819048Y-99083390D02*
X125961905Y-98892914D01*
X125961905Y-98892914D02*
X126104762Y-99083390D01*
X122866666Y-59654819D02*
X122533333Y-59178628D01*
X122295238Y-59654819D02*
X122295238Y-58654819D01*
X122295238Y-58654819D02*
X122676190Y-58654819D01*
X122676190Y-58654819D02*
X122771428Y-58702438D01*
X122771428Y-58702438D02*
X122819047Y-58750057D01*
X122819047Y-58750057D02*
X122866666Y-58845295D01*
X122866666Y-58845295D02*
X122866666Y-58988152D01*
X122866666Y-58988152D02*
X122819047Y-59083390D01*
X122819047Y-59083390D02*
X122771428Y-59131009D01*
X122771428Y-59131009D02*
X122676190Y-59178628D01*
X122676190Y-59178628D02*
X122295238Y-59178628D01*
X123295238Y-59131009D02*
X123628571Y-59131009D01*
X123771428Y-59654819D02*
X123295238Y-59654819D01*
X123295238Y-59654819D02*
X123295238Y-58654819D01*
X123295238Y-58654819D02*
X123771428Y-58654819D01*
X124533333Y-59131009D02*
X124200000Y-59131009D01*
X124200000Y-59654819D02*
X124200000Y-58654819D01*
X124200000Y-58654819D02*
X124676190Y-58654819D01*
X125200000Y-58654819D02*
X125200000Y-58892914D01*
X124961905Y-58797676D02*
X125200000Y-58892914D01*
X125200000Y-58892914D02*
X125438095Y-58797676D01*
X125057143Y-59083390D02*
X125200000Y-58892914D01*
X125200000Y-58892914D02*
X125342857Y-59083390D01*
X125961905Y-58654819D02*
X125961905Y-58892914D01*
X125723810Y-58797676D02*
X125961905Y-58892914D01*
X125961905Y-58892914D02*
X126200000Y-58797676D01*
X125819048Y-59083390D02*
X125961905Y-58892914D01*
X125961905Y-58892914D02*
X126104762Y-59083390D01*
D11*
G04 #@! TO.C,SW9*
X146670000Y-91825000D02*
X146670000Y-106025000D01*
X146670000Y-106025000D02*
X160870000Y-106025000D01*
X160870000Y-91825000D02*
X146670000Y-91825000D01*
X160870000Y-106025000D02*
X160870000Y-91825000D01*
G04 #@! TO.C,SW11*
X184770000Y-91825000D02*
X184770000Y-106025000D01*
X184770000Y-106025000D02*
X198970000Y-106025000D01*
X198970000Y-91825000D02*
X184770000Y-91825000D01*
X198970000Y-106025000D02*
X198970000Y-91825000D01*
G04 #@! TO.C,SW4*
X127620000Y-72775000D02*
X127620000Y-86975000D01*
X127620000Y-86975000D02*
X141820000Y-86975000D01*
X141820000Y-72775000D02*
X127620000Y-72775000D01*
X141820000Y-86975000D02*
X141820000Y-72775000D01*
G04 #@! TO.C,SW6*
X165720000Y-72775000D02*
X165720000Y-86975000D01*
X165720000Y-86975000D02*
X179920000Y-86975000D01*
X179920000Y-72775000D02*
X165720000Y-72775000D01*
X179920000Y-86975000D02*
X179920000Y-72775000D01*
G04 #@! TO.C,SW5*
X146670000Y-72775000D02*
X146670000Y-86975000D01*
X146670000Y-86975000D02*
X160870000Y-86975000D01*
X160870000Y-72775000D02*
X146670000Y-72775000D01*
X160870000Y-86975000D02*
X160870000Y-72775000D01*
G04 #@! TO.C,SW8*
X127620000Y-91825000D02*
X127620000Y-106025000D01*
X127620000Y-106025000D02*
X141820000Y-106025000D01*
X141820000Y-91825000D02*
X127620000Y-91825000D01*
X141820000Y-106025000D02*
X141820000Y-91825000D01*
G04 #@! TO.C,SW7*
X184770000Y-72775000D02*
X184770000Y-86975000D01*
X184770000Y-86975000D02*
X198970000Y-86975000D01*
X198970000Y-72775000D02*
X184770000Y-72775000D01*
X198970000Y-86975000D02*
X198970000Y-72775000D01*
G04 #@! TO.C,SW10*
X165720000Y-91825000D02*
X165720000Y-106025000D01*
X165720000Y-106025000D02*
X179920000Y-106025000D01*
X179920000Y-91825000D02*
X165720000Y-91825000D01*
X179920000Y-106025000D02*
X179920000Y-91825000D01*
G04 #@! TO.C,SW3*
X165720000Y-53725000D02*
X165720000Y-67925000D01*
X165720000Y-67925000D02*
X179920000Y-67925000D01*
X179920000Y-53725000D02*
X165720000Y-53725000D01*
X179920000Y-67925000D02*
X179920000Y-53725000D01*
G04 #@! TO.C,SW1*
X127620000Y-53725000D02*
X127620000Y-67925000D01*
X127620000Y-67925000D02*
X141820000Y-67925000D01*
X141820000Y-53725000D02*
X127620000Y-53725000D01*
X141820000Y-67925000D02*
X141820000Y-53725000D01*
G04 #@! TO.C,SW2*
X146670000Y-53725000D02*
X146670000Y-67925000D01*
X146670000Y-67925000D02*
X160870000Y-67925000D01*
X160870000Y-53725000D02*
X146670000Y-53725000D01*
X160870000Y-67925000D02*
X160870000Y-53725000D01*
G04 #@! TO.C,ROT1*
X185970000Y-59075000D02*
X185970000Y-54975000D01*
X185970000Y-67175000D02*
X185970000Y-63075000D01*
X188370000Y-67175000D02*
X185970000Y-67175000D01*
X191870000Y-60575000D02*
X191870000Y-61575000D01*
X192370000Y-61075000D02*
X191370000Y-61075000D01*
X193170000Y-67175000D02*
X190570000Y-67175000D01*
X195670000Y-53575000D02*
X195970000Y-53275000D01*
X195970000Y-53275000D02*
X195970000Y-53875000D01*
X195970000Y-53875000D02*
X195670000Y-53575000D01*
X197770000Y-54975000D02*
X185970000Y-54975000D01*
X197770000Y-59075000D02*
X197770000Y-54975000D01*
X197770000Y-63075000D02*
X197770000Y-67175000D01*
X197770000Y-67175000D02*
X195370000Y-67175000D01*
X194870000Y-61075000D02*
G75*
G02*
X188870000Y-61075000I-3000000J0D01*
G01*
X188870000Y-61075000D02*
G75*
G02*
X194870000Y-61075000I3000000J0D01*
G01*
G04 #@! TD*
M02*
