G04 #@! TF.GenerationSoftware,KiCad,Pcbnew,8.0.6*
G04 #@! TF.CreationDate,2024-11-16T10:54:58+01:00*
G04 #@! TF.ProjectId,SwitchPCB,53776974-6368-4504-9342-2e6b69636164,rev?*
G04 #@! TF.SameCoordinates,Original*
G04 #@! TF.FileFunction,Legend,Bot*
G04 #@! TF.FilePolarity,Positive*
%FSLAX46Y46*%
G04 Gerber Fmt 4.6, Leading zero omitted, Abs format (unit mm)*
G04 Created by KiCad (PCBNEW 8.0.6) date 2024-11-16 10:54:58*
%MOMM*%
%LPD*%
G01*
G04 APERTURE LIST*
%ADD10C,0.150000*%
%ADD11C,0.120000*%
G04 APERTURE END LIST*
D10*
X167216666Y-70612819D02*
X167549999Y-70136628D01*
X167788094Y-70612819D02*
X167788094Y-69612819D01*
X167788094Y-69612819D02*
X167407142Y-69612819D01*
X167407142Y-69612819D02*
X167311904Y-69660438D01*
X167311904Y-69660438D02*
X167264285Y-69708057D01*
X167264285Y-69708057D02*
X167216666Y-69803295D01*
X167216666Y-69803295D02*
X167216666Y-69946152D01*
X167216666Y-69946152D02*
X167264285Y-70041390D01*
X167264285Y-70041390D02*
X167311904Y-70089009D01*
X167311904Y-70089009D02*
X167407142Y-70136628D01*
X167407142Y-70136628D02*
X167788094Y-70136628D01*
X166835713Y-69708057D02*
X166788094Y-69660438D01*
X166788094Y-69660438D02*
X166692856Y-69612819D01*
X166692856Y-69612819D02*
X166454761Y-69612819D01*
X166454761Y-69612819D02*
X166359523Y-69660438D01*
X166359523Y-69660438D02*
X166311904Y-69708057D01*
X166311904Y-69708057D02*
X166264285Y-69803295D01*
X166264285Y-69803295D02*
X166264285Y-69898533D01*
X166264285Y-69898533D02*
X166311904Y-70041390D01*
X166311904Y-70041390D02*
X166883332Y-70612819D01*
X166883332Y-70612819D02*
X166264285Y-70612819D01*
X186554819Y-67761905D02*
X185554819Y-67761905D01*
X185554819Y-67761905D02*
X185554819Y-68000000D01*
X185554819Y-68000000D02*
X185602438Y-68142857D01*
X185602438Y-68142857D02*
X185697676Y-68238095D01*
X185697676Y-68238095D02*
X185792914Y-68285714D01*
X185792914Y-68285714D02*
X185983390Y-68333333D01*
X185983390Y-68333333D02*
X186126247Y-68333333D01*
X186126247Y-68333333D02*
X186316723Y-68285714D01*
X186316723Y-68285714D02*
X186411961Y-68238095D01*
X186411961Y-68238095D02*
X186507200Y-68142857D01*
X186507200Y-68142857D02*
X186554819Y-68000000D01*
X186554819Y-68000000D02*
X186554819Y-67761905D01*
X185888152Y-69190476D02*
X186554819Y-69190476D01*
X185507200Y-68952381D02*
X186221485Y-68714286D01*
X186221485Y-68714286D02*
X186221485Y-69333333D01*
X132717319Y-103766666D02*
X133431604Y-103766666D01*
X133431604Y-103766666D02*
X133574461Y-103719047D01*
X133574461Y-103719047D02*
X133669700Y-103623809D01*
X133669700Y-103623809D02*
X133717319Y-103480952D01*
X133717319Y-103480952D02*
X133717319Y-103385714D01*
X133050652Y-104671428D02*
X133717319Y-104671428D01*
X132669700Y-104433333D02*
X133383985Y-104195238D01*
X133383985Y-104195238D02*
X133383985Y-104814285D01*
X165749819Y-102793714D02*
X164749819Y-102793714D01*
X164749819Y-102793714D02*
X164749819Y-103031809D01*
X164749819Y-103031809D02*
X164797438Y-103174666D01*
X164797438Y-103174666D02*
X164892676Y-103269904D01*
X164892676Y-103269904D02*
X164987914Y-103317523D01*
X164987914Y-103317523D02*
X165178390Y-103365142D01*
X165178390Y-103365142D02*
X165321247Y-103365142D01*
X165321247Y-103365142D02*
X165511723Y-103317523D01*
X165511723Y-103317523D02*
X165606961Y-103269904D01*
X165606961Y-103269904D02*
X165702200Y-103174666D01*
X165702200Y-103174666D02*
X165749819Y-103031809D01*
X165749819Y-103031809D02*
X165749819Y-102793714D01*
X165749819Y-104317523D02*
X165749819Y-103746095D01*
X165749819Y-104031809D02*
X164749819Y-104031809D01*
X164749819Y-104031809D02*
X164892676Y-103936571D01*
X164892676Y-103936571D02*
X164987914Y-103841333D01*
X164987914Y-103841333D02*
X165035533Y-103746095D01*
X164749819Y-104936571D02*
X164749819Y-105031809D01*
X164749819Y-105031809D02*
X164797438Y-105127047D01*
X164797438Y-105127047D02*
X164845057Y-105174666D01*
X164845057Y-105174666D02*
X164940295Y-105222285D01*
X164940295Y-105222285D02*
X165130771Y-105269904D01*
X165130771Y-105269904D02*
X165368866Y-105269904D01*
X165368866Y-105269904D02*
X165559342Y-105222285D01*
X165559342Y-105222285D02*
X165654580Y-105174666D01*
X165654580Y-105174666D02*
X165702200Y-105127047D01*
X165702200Y-105127047D02*
X165749819Y-105031809D01*
X165749819Y-105031809D02*
X165749819Y-104936571D01*
X165749819Y-104936571D02*
X165702200Y-104841333D01*
X165702200Y-104841333D02*
X165654580Y-104793714D01*
X165654580Y-104793714D02*
X165559342Y-104746095D01*
X165559342Y-104746095D02*
X165368866Y-104698476D01*
X165368866Y-104698476D02*
X165130771Y-104698476D01*
X165130771Y-104698476D02*
X164940295Y-104746095D01*
X164940295Y-104746095D02*
X164845057Y-104793714D01*
X164845057Y-104793714D02*
X164797438Y-104841333D01*
X164797438Y-104841333D02*
X164749819Y-104936571D01*
X197538094Y-86854819D02*
X197538094Y-85854819D01*
X197538094Y-85854819D02*
X197299999Y-85854819D01*
X197299999Y-85854819D02*
X197157142Y-85902438D01*
X197157142Y-85902438D02*
X197061904Y-85997676D01*
X197061904Y-85997676D02*
X197014285Y-86092914D01*
X197014285Y-86092914D02*
X196966666Y-86283390D01*
X196966666Y-86283390D02*
X196966666Y-86426247D01*
X196966666Y-86426247D02*
X197014285Y-86616723D01*
X197014285Y-86616723D02*
X197061904Y-86711961D01*
X197061904Y-86711961D02*
X197157142Y-86807200D01*
X197157142Y-86807200D02*
X197299999Y-86854819D01*
X197299999Y-86854819D02*
X197538094Y-86854819D01*
X196395237Y-86283390D02*
X196490475Y-86235771D01*
X196490475Y-86235771D02*
X196538094Y-86188152D01*
X196538094Y-86188152D02*
X196585713Y-86092914D01*
X196585713Y-86092914D02*
X196585713Y-86045295D01*
X196585713Y-86045295D02*
X196538094Y-85950057D01*
X196538094Y-85950057D02*
X196490475Y-85902438D01*
X196490475Y-85902438D02*
X196395237Y-85854819D01*
X196395237Y-85854819D02*
X196204761Y-85854819D01*
X196204761Y-85854819D02*
X196109523Y-85902438D01*
X196109523Y-85902438D02*
X196061904Y-85950057D01*
X196061904Y-85950057D02*
X196014285Y-86045295D01*
X196014285Y-86045295D02*
X196014285Y-86092914D01*
X196014285Y-86092914D02*
X196061904Y-86188152D01*
X196061904Y-86188152D02*
X196109523Y-86235771D01*
X196109523Y-86235771D02*
X196204761Y-86283390D01*
X196204761Y-86283390D02*
X196395237Y-86283390D01*
X196395237Y-86283390D02*
X196490475Y-86331009D01*
X196490475Y-86331009D02*
X196538094Y-86378628D01*
X196538094Y-86378628D02*
X196585713Y-86473866D01*
X196585713Y-86473866D02*
X196585713Y-86664342D01*
X196585713Y-86664342D02*
X196538094Y-86759580D01*
X196538094Y-86759580D02*
X196490475Y-86807200D01*
X196490475Y-86807200D02*
X196395237Y-86854819D01*
X196395237Y-86854819D02*
X196204761Y-86854819D01*
X196204761Y-86854819D02*
X196109523Y-86807200D01*
X196109523Y-86807200D02*
X196061904Y-86759580D01*
X196061904Y-86759580D02*
X196014285Y-86664342D01*
X196014285Y-86664342D02*
X196014285Y-86473866D01*
X196014285Y-86473866D02*
X196061904Y-86378628D01*
X196061904Y-86378628D02*
X196109523Y-86331009D01*
X196109523Y-86331009D02*
X196204761Y-86283390D01*
X146699819Y-103269905D02*
X145699819Y-103269905D01*
X145699819Y-103269905D02*
X145699819Y-103508000D01*
X145699819Y-103508000D02*
X145747438Y-103650857D01*
X145747438Y-103650857D02*
X145842676Y-103746095D01*
X145842676Y-103746095D02*
X145937914Y-103793714D01*
X145937914Y-103793714D02*
X146128390Y-103841333D01*
X146128390Y-103841333D02*
X146271247Y-103841333D01*
X146271247Y-103841333D02*
X146461723Y-103793714D01*
X146461723Y-103793714D02*
X146556961Y-103746095D01*
X146556961Y-103746095D02*
X146652200Y-103650857D01*
X146652200Y-103650857D02*
X146699819Y-103508000D01*
X146699819Y-103508000D02*
X146699819Y-103269905D01*
X146699819Y-104317524D02*
X146699819Y-104508000D01*
X146699819Y-104508000D02*
X146652200Y-104603238D01*
X146652200Y-104603238D02*
X146604580Y-104650857D01*
X146604580Y-104650857D02*
X146461723Y-104746095D01*
X146461723Y-104746095D02*
X146271247Y-104793714D01*
X146271247Y-104793714D02*
X145890295Y-104793714D01*
X145890295Y-104793714D02*
X145795057Y-104746095D01*
X145795057Y-104746095D02*
X145747438Y-104698476D01*
X145747438Y-104698476D02*
X145699819Y-104603238D01*
X145699819Y-104603238D02*
X145699819Y-104412762D01*
X145699819Y-104412762D02*
X145747438Y-104317524D01*
X145747438Y-104317524D02*
X145795057Y-104269905D01*
X145795057Y-104269905D02*
X145890295Y-104222286D01*
X145890295Y-104222286D02*
X146128390Y-104222286D01*
X146128390Y-104222286D02*
X146223628Y-104269905D01*
X146223628Y-104269905D02*
X146271247Y-104317524D01*
X146271247Y-104317524D02*
X146318866Y-104412762D01*
X146318866Y-104412762D02*
X146318866Y-104603238D01*
X146318866Y-104603238D02*
X146271247Y-104698476D01*
X146271247Y-104698476D02*
X146223628Y-104746095D01*
X146223628Y-104746095D02*
X146128390Y-104793714D01*
X167178166Y-89912819D02*
X167511499Y-89436628D01*
X167749594Y-89912819D02*
X167749594Y-88912819D01*
X167749594Y-88912819D02*
X167368642Y-88912819D01*
X167368642Y-88912819D02*
X167273404Y-88960438D01*
X167273404Y-88960438D02*
X167225785Y-89008057D01*
X167225785Y-89008057D02*
X167178166Y-89103295D01*
X167178166Y-89103295D02*
X167178166Y-89246152D01*
X167178166Y-89246152D02*
X167225785Y-89341390D01*
X167225785Y-89341390D02*
X167273404Y-89389009D01*
X167273404Y-89389009D02*
X167368642Y-89436628D01*
X167368642Y-89436628D02*
X167749594Y-89436628D01*
X166273404Y-88912819D02*
X166749594Y-88912819D01*
X166749594Y-88912819D02*
X166797213Y-89389009D01*
X166797213Y-89389009D02*
X166749594Y-89341390D01*
X166749594Y-89341390D02*
X166654356Y-89293771D01*
X166654356Y-89293771D02*
X166416261Y-89293771D01*
X166416261Y-89293771D02*
X166321023Y-89341390D01*
X166321023Y-89341390D02*
X166273404Y-89389009D01*
X166273404Y-89389009D02*
X166225785Y-89484247D01*
X166225785Y-89484247D02*
X166225785Y-89722342D01*
X166225785Y-89722342D02*
X166273404Y-89817580D01*
X166273404Y-89817580D02*
X166321023Y-89865200D01*
X166321023Y-89865200D02*
X166416261Y-89912819D01*
X166416261Y-89912819D02*
X166654356Y-89912819D01*
X166654356Y-89912819D02*
X166749594Y-89865200D01*
X166749594Y-89865200D02*
X166797213Y-89817580D01*
X184799819Y-102793714D02*
X183799819Y-102793714D01*
X183799819Y-102793714D02*
X183799819Y-103031809D01*
X183799819Y-103031809D02*
X183847438Y-103174666D01*
X183847438Y-103174666D02*
X183942676Y-103269904D01*
X183942676Y-103269904D02*
X184037914Y-103317523D01*
X184037914Y-103317523D02*
X184228390Y-103365142D01*
X184228390Y-103365142D02*
X184371247Y-103365142D01*
X184371247Y-103365142D02*
X184561723Y-103317523D01*
X184561723Y-103317523D02*
X184656961Y-103269904D01*
X184656961Y-103269904D02*
X184752200Y-103174666D01*
X184752200Y-103174666D02*
X184799819Y-103031809D01*
X184799819Y-103031809D02*
X184799819Y-102793714D01*
X184799819Y-104317523D02*
X184799819Y-103746095D01*
X184799819Y-104031809D02*
X183799819Y-104031809D01*
X183799819Y-104031809D02*
X183942676Y-103936571D01*
X183942676Y-103936571D02*
X184037914Y-103841333D01*
X184037914Y-103841333D02*
X184085533Y-103746095D01*
X184799819Y-105269904D02*
X184799819Y-104698476D01*
X184799819Y-104984190D02*
X183799819Y-104984190D01*
X183799819Y-104984190D02*
X183942676Y-104888952D01*
X183942676Y-104888952D02*
X184037914Y-104793714D01*
X184037914Y-104793714D02*
X184085533Y-104698476D01*
X148193666Y-89912819D02*
X148526999Y-89436628D01*
X148765094Y-89912819D02*
X148765094Y-88912819D01*
X148765094Y-88912819D02*
X148384142Y-88912819D01*
X148384142Y-88912819D02*
X148288904Y-88960438D01*
X148288904Y-88960438D02*
X148241285Y-89008057D01*
X148241285Y-89008057D02*
X148193666Y-89103295D01*
X148193666Y-89103295D02*
X148193666Y-89246152D01*
X148193666Y-89246152D02*
X148241285Y-89341390D01*
X148241285Y-89341390D02*
X148288904Y-89389009D01*
X148288904Y-89389009D02*
X148384142Y-89436628D01*
X148384142Y-89436628D02*
X148765094Y-89436628D01*
X147336523Y-89246152D02*
X147336523Y-89912819D01*
X147574618Y-88865200D02*
X147812713Y-89579485D01*
X147812713Y-89579485D02*
X147193666Y-89579485D01*
X182854819Y-67861905D02*
X181854819Y-67861905D01*
X181854819Y-67861905D02*
X181854819Y-68100000D01*
X181854819Y-68100000D02*
X181902438Y-68242857D01*
X181902438Y-68242857D02*
X181997676Y-68338095D01*
X181997676Y-68338095D02*
X182092914Y-68385714D01*
X182092914Y-68385714D02*
X182283390Y-68433333D01*
X182283390Y-68433333D02*
X182426247Y-68433333D01*
X182426247Y-68433333D02*
X182616723Y-68385714D01*
X182616723Y-68385714D02*
X182711961Y-68338095D01*
X182711961Y-68338095D02*
X182807200Y-68242857D01*
X182807200Y-68242857D02*
X182854819Y-68100000D01*
X182854819Y-68100000D02*
X182854819Y-67861905D01*
X181854819Y-68766667D02*
X181854819Y-69385714D01*
X181854819Y-69385714D02*
X182235771Y-69052381D01*
X182235771Y-69052381D02*
X182235771Y-69195238D01*
X182235771Y-69195238D02*
X182283390Y-69290476D01*
X182283390Y-69290476D02*
X182331009Y-69338095D01*
X182331009Y-69338095D02*
X182426247Y-69385714D01*
X182426247Y-69385714D02*
X182664342Y-69385714D01*
X182664342Y-69385714D02*
X182759580Y-69338095D01*
X182759580Y-69338095D02*
X182807200Y-69290476D01*
X182807200Y-69290476D02*
X182854819Y-69195238D01*
X182854819Y-69195238D02*
X182854819Y-68909524D01*
X182854819Y-68909524D02*
X182807200Y-68814286D01*
X182807200Y-68814286D02*
X182759580Y-68766667D01*
X182854819Y-87137905D02*
X181854819Y-87137905D01*
X181854819Y-87137905D02*
X181854819Y-87376000D01*
X181854819Y-87376000D02*
X181902438Y-87518857D01*
X181902438Y-87518857D02*
X181997676Y-87614095D01*
X181997676Y-87614095D02*
X182092914Y-87661714D01*
X182092914Y-87661714D02*
X182283390Y-87709333D01*
X182283390Y-87709333D02*
X182426247Y-87709333D01*
X182426247Y-87709333D02*
X182616723Y-87661714D01*
X182616723Y-87661714D02*
X182711961Y-87614095D01*
X182711961Y-87614095D02*
X182807200Y-87518857D01*
X182807200Y-87518857D02*
X182854819Y-87376000D01*
X182854819Y-87376000D02*
X182854819Y-87137905D01*
X181854819Y-88042667D02*
X181854819Y-88709333D01*
X181854819Y-88709333D02*
X182854819Y-88280762D01*
X148132166Y-70612819D02*
X148465499Y-70136628D01*
X148703594Y-70612819D02*
X148703594Y-69612819D01*
X148703594Y-69612819D02*
X148322642Y-69612819D01*
X148322642Y-69612819D02*
X148227404Y-69660438D01*
X148227404Y-69660438D02*
X148179785Y-69708057D01*
X148179785Y-69708057D02*
X148132166Y-69803295D01*
X148132166Y-69803295D02*
X148132166Y-69946152D01*
X148132166Y-69946152D02*
X148179785Y-70041390D01*
X148179785Y-70041390D02*
X148227404Y-70089009D01*
X148227404Y-70089009D02*
X148322642Y-70136628D01*
X148322642Y-70136628D02*
X148703594Y-70136628D01*
X147179785Y-70612819D02*
X147751213Y-70612819D01*
X147465499Y-70612819D02*
X147465499Y-69612819D01*
X147465499Y-69612819D02*
X147560737Y-69755676D01*
X147560737Y-69755676D02*
X147655975Y-69850914D01*
X147655975Y-69850914D02*
X147751213Y-69898533D01*
X144754819Y-87161905D02*
X143754819Y-87161905D01*
X143754819Y-87161905D02*
X143754819Y-87400000D01*
X143754819Y-87400000D02*
X143802438Y-87542857D01*
X143802438Y-87542857D02*
X143897676Y-87638095D01*
X143897676Y-87638095D02*
X143992914Y-87685714D01*
X143992914Y-87685714D02*
X144183390Y-87733333D01*
X144183390Y-87733333D02*
X144326247Y-87733333D01*
X144326247Y-87733333D02*
X144516723Y-87685714D01*
X144516723Y-87685714D02*
X144611961Y-87638095D01*
X144611961Y-87638095D02*
X144707200Y-87542857D01*
X144707200Y-87542857D02*
X144754819Y-87400000D01*
X144754819Y-87400000D02*
X144754819Y-87161905D01*
X143754819Y-88638095D02*
X143754819Y-88161905D01*
X143754819Y-88161905D02*
X144231009Y-88114286D01*
X144231009Y-88114286D02*
X144183390Y-88161905D01*
X144183390Y-88161905D02*
X144135771Y-88257143D01*
X144135771Y-88257143D02*
X144135771Y-88495238D01*
X144135771Y-88495238D02*
X144183390Y-88590476D01*
X144183390Y-88590476D02*
X144231009Y-88638095D01*
X144231009Y-88638095D02*
X144326247Y-88685714D01*
X144326247Y-88685714D02*
X144564342Y-88685714D01*
X144564342Y-88685714D02*
X144659580Y-88638095D01*
X144659580Y-88638095D02*
X144707200Y-88590476D01*
X144707200Y-88590476D02*
X144754819Y-88495238D01*
X144754819Y-88495238D02*
X144754819Y-88257143D01*
X144754819Y-88257143D02*
X144707200Y-88161905D01*
X144707200Y-88161905D02*
X144659580Y-88114286D01*
X132717319Y-84716666D02*
X133431604Y-84716666D01*
X133431604Y-84716666D02*
X133574461Y-84669047D01*
X133574461Y-84669047D02*
X133669700Y-84573809D01*
X133669700Y-84573809D02*
X133717319Y-84430952D01*
X133717319Y-84430952D02*
X133717319Y-84335714D01*
X132717319Y-85097619D02*
X132717319Y-85716666D01*
X132717319Y-85716666D02*
X133098271Y-85383333D01*
X133098271Y-85383333D02*
X133098271Y-85526190D01*
X133098271Y-85526190D02*
X133145890Y-85621428D01*
X133145890Y-85621428D02*
X133193509Y-85669047D01*
X133193509Y-85669047D02*
X133288747Y-85716666D01*
X133288747Y-85716666D02*
X133526842Y-85716666D01*
X133526842Y-85716666D02*
X133622080Y-85669047D01*
X133622080Y-85669047D02*
X133669700Y-85621428D01*
X133669700Y-85621428D02*
X133717319Y-85526190D01*
X133717319Y-85526190D02*
X133717319Y-85240476D01*
X133717319Y-85240476D02*
X133669700Y-85145238D01*
X133669700Y-85145238D02*
X133622080Y-85097619D01*
X186266666Y-89912819D02*
X186599999Y-89436628D01*
X186838094Y-89912819D02*
X186838094Y-88912819D01*
X186838094Y-88912819D02*
X186457142Y-88912819D01*
X186457142Y-88912819D02*
X186361904Y-88960438D01*
X186361904Y-88960438D02*
X186314285Y-89008057D01*
X186314285Y-89008057D02*
X186266666Y-89103295D01*
X186266666Y-89103295D02*
X186266666Y-89246152D01*
X186266666Y-89246152D02*
X186314285Y-89341390D01*
X186314285Y-89341390D02*
X186361904Y-89389009D01*
X186361904Y-89389009D02*
X186457142Y-89436628D01*
X186457142Y-89436628D02*
X186838094Y-89436628D01*
X185409523Y-88912819D02*
X185599999Y-88912819D01*
X185599999Y-88912819D02*
X185695237Y-88960438D01*
X185695237Y-88960438D02*
X185742856Y-89008057D01*
X185742856Y-89008057D02*
X185838094Y-89150914D01*
X185838094Y-89150914D02*
X185885713Y-89341390D01*
X185885713Y-89341390D02*
X185885713Y-89722342D01*
X185885713Y-89722342D02*
X185838094Y-89817580D01*
X185838094Y-89817580D02*
X185790475Y-89865200D01*
X185790475Y-89865200D02*
X185695237Y-89912819D01*
X185695237Y-89912819D02*
X185504761Y-89912819D01*
X185504761Y-89912819D02*
X185409523Y-89865200D01*
X185409523Y-89865200D02*
X185361904Y-89817580D01*
X185361904Y-89817580D02*
X185314285Y-89722342D01*
X185314285Y-89722342D02*
X185314285Y-89484247D01*
X185314285Y-89484247D02*
X185361904Y-89389009D01*
X185361904Y-89389009D02*
X185409523Y-89341390D01*
X185409523Y-89341390D02*
X185504761Y-89293771D01*
X185504761Y-89293771D02*
X185695237Y-89293771D01*
X185695237Y-89293771D02*
X185790475Y-89341390D01*
X185790475Y-89341390D02*
X185838094Y-89389009D01*
X185838094Y-89389009D02*
X185885713Y-89484247D01*
X163754819Y-67833905D02*
X162754819Y-67833905D01*
X162754819Y-67833905D02*
X162754819Y-68072000D01*
X162754819Y-68072000D02*
X162802438Y-68214857D01*
X162802438Y-68214857D02*
X162897676Y-68310095D01*
X162897676Y-68310095D02*
X162992914Y-68357714D01*
X162992914Y-68357714D02*
X163183390Y-68405333D01*
X163183390Y-68405333D02*
X163326247Y-68405333D01*
X163326247Y-68405333D02*
X163516723Y-68357714D01*
X163516723Y-68357714D02*
X163611961Y-68310095D01*
X163611961Y-68310095D02*
X163707200Y-68214857D01*
X163707200Y-68214857D02*
X163754819Y-68072000D01*
X163754819Y-68072000D02*
X163754819Y-67833905D01*
X162850057Y-68786286D02*
X162802438Y-68833905D01*
X162802438Y-68833905D02*
X162754819Y-68929143D01*
X162754819Y-68929143D02*
X162754819Y-69167238D01*
X162754819Y-69167238D02*
X162802438Y-69262476D01*
X162802438Y-69262476D02*
X162850057Y-69310095D01*
X162850057Y-69310095D02*
X162945295Y-69357714D01*
X162945295Y-69357714D02*
X163040533Y-69357714D01*
X163040533Y-69357714D02*
X163183390Y-69310095D01*
X163183390Y-69310095D02*
X163754819Y-68738667D01*
X163754819Y-68738667D02*
X163754819Y-69357714D01*
X198034285Y-107454819D02*
X198034285Y-106454819D01*
X198034285Y-106454819D02*
X197796190Y-106454819D01*
X197796190Y-106454819D02*
X197653333Y-106502438D01*
X197653333Y-106502438D02*
X197558095Y-106597676D01*
X197558095Y-106597676D02*
X197510476Y-106692914D01*
X197510476Y-106692914D02*
X197462857Y-106883390D01*
X197462857Y-106883390D02*
X197462857Y-107026247D01*
X197462857Y-107026247D02*
X197510476Y-107216723D01*
X197510476Y-107216723D02*
X197558095Y-107311961D01*
X197558095Y-107311961D02*
X197653333Y-107407200D01*
X197653333Y-107407200D02*
X197796190Y-107454819D01*
X197796190Y-107454819D02*
X198034285Y-107454819D01*
X196510476Y-107454819D02*
X197081904Y-107454819D01*
X196796190Y-107454819D02*
X196796190Y-106454819D01*
X196796190Y-106454819D02*
X196891428Y-106597676D01*
X196891428Y-106597676D02*
X196986666Y-106692914D01*
X196986666Y-106692914D02*
X197081904Y-106740533D01*
X196129523Y-106550057D02*
X196081904Y-106502438D01*
X196081904Y-106502438D02*
X195986666Y-106454819D01*
X195986666Y-106454819D02*
X195748571Y-106454819D01*
X195748571Y-106454819D02*
X195653333Y-106502438D01*
X195653333Y-106502438D02*
X195605714Y-106550057D01*
X195605714Y-106550057D02*
X195558095Y-106645295D01*
X195558095Y-106645295D02*
X195558095Y-106740533D01*
X195558095Y-106740533D02*
X195605714Y-106883390D01*
X195605714Y-106883390D02*
X196177142Y-107454819D01*
X196177142Y-107454819D02*
X195558095Y-107454819D01*
X144754819Y-67861905D02*
X143754819Y-67861905D01*
X143754819Y-67861905D02*
X143754819Y-68100000D01*
X143754819Y-68100000D02*
X143802438Y-68242857D01*
X143802438Y-68242857D02*
X143897676Y-68338095D01*
X143897676Y-68338095D02*
X143992914Y-68385714D01*
X143992914Y-68385714D02*
X144183390Y-68433333D01*
X144183390Y-68433333D02*
X144326247Y-68433333D01*
X144326247Y-68433333D02*
X144516723Y-68385714D01*
X144516723Y-68385714D02*
X144611961Y-68338095D01*
X144611961Y-68338095D02*
X144707200Y-68242857D01*
X144707200Y-68242857D02*
X144754819Y-68100000D01*
X144754819Y-68100000D02*
X144754819Y-67861905D01*
X144754819Y-69385714D02*
X144754819Y-68814286D01*
X144754819Y-69100000D02*
X143754819Y-69100000D01*
X143754819Y-69100000D02*
X143897676Y-69004762D01*
X143897676Y-69004762D02*
X143992914Y-68909524D01*
X143992914Y-68909524D02*
X144040533Y-68814286D01*
X163754819Y-87137905D02*
X162754819Y-87137905D01*
X162754819Y-87137905D02*
X162754819Y-87376000D01*
X162754819Y-87376000D02*
X162802438Y-87518857D01*
X162802438Y-87518857D02*
X162897676Y-87614095D01*
X162897676Y-87614095D02*
X162992914Y-87661714D01*
X162992914Y-87661714D02*
X163183390Y-87709333D01*
X163183390Y-87709333D02*
X163326247Y-87709333D01*
X163326247Y-87709333D02*
X163516723Y-87661714D01*
X163516723Y-87661714D02*
X163611961Y-87614095D01*
X163611961Y-87614095D02*
X163707200Y-87518857D01*
X163707200Y-87518857D02*
X163754819Y-87376000D01*
X163754819Y-87376000D02*
X163754819Y-87137905D01*
X162754819Y-88566476D02*
X162754819Y-88376000D01*
X162754819Y-88376000D02*
X162802438Y-88280762D01*
X162802438Y-88280762D02*
X162850057Y-88233143D01*
X162850057Y-88233143D02*
X162992914Y-88137905D01*
X162992914Y-88137905D02*
X163183390Y-88090286D01*
X163183390Y-88090286D02*
X163564342Y-88090286D01*
X163564342Y-88090286D02*
X163659580Y-88137905D01*
X163659580Y-88137905D02*
X163707200Y-88185524D01*
X163707200Y-88185524D02*
X163754819Y-88280762D01*
X163754819Y-88280762D02*
X163754819Y-88471238D01*
X163754819Y-88471238D02*
X163707200Y-88566476D01*
X163707200Y-88566476D02*
X163659580Y-88614095D01*
X163659580Y-88614095D02*
X163564342Y-88661714D01*
X163564342Y-88661714D02*
X163326247Y-88661714D01*
X163326247Y-88661714D02*
X163231009Y-88614095D01*
X163231009Y-88614095D02*
X163183390Y-88566476D01*
X163183390Y-88566476D02*
X163135771Y-88471238D01*
X163135771Y-88471238D02*
X163135771Y-88280762D01*
X163135771Y-88280762D02*
X163183390Y-88185524D01*
X163183390Y-88185524D02*
X163231009Y-88137905D01*
X163231009Y-88137905D02*
X163326247Y-88090286D01*
D11*
G04 #@! TO.C,SW9*
X149670000Y-92025000D02*
X154770000Y-92025000D01*
X153570000Y-96225000D02*
X158670000Y-96225000D01*
X147670000Y-94025000D02*
G75*
G02*
X149670000Y-92025000I1999999J1D01*
G01*
X151570000Y-98225000D02*
G75*
G02*
X153570000Y-96225000I1999999J1D01*
G01*
G04 #@! TO.C,SW11*
X187770000Y-92025000D02*
X192870000Y-92025000D01*
X191670000Y-96225000D02*
X196770000Y-96225000D01*
X185770000Y-94025000D02*
G75*
G02*
X187770000Y-92025000I1999999J1D01*
G01*
X189670000Y-98225000D02*
G75*
G02*
X191670000Y-96225000I1999999J1D01*
G01*
G04 #@! TO.C,SW4*
X130620000Y-72975000D02*
X135720000Y-72975000D01*
X134520000Y-77175000D02*
X139620000Y-77175000D01*
X128620000Y-74975000D02*
G75*
G02*
X130620000Y-72975000I1999999J1D01*
G01*
X132520000Y-79175000D02*
G75*
G02*
X134520000Y-77175000I1999999J1D01*
G01*
G04 #@! TO.C,SW6*
X168720000Y-72975000D02*
X173820000Y-72975000D01*
X172620000Y-77175000D02*
X177720000Y-77175000D01*
X166720000Y-74975000D02*
G75*
G02*
X168720000Y-72975000I1999999J1D01*
G01*
X170620000Y-79175000D02*
G75*
G02*
X172620000Y-77175000I1999999J1D01*
G01*
G04 #@! TO.C,SW5*
X149670000Y-72975000D02*
X154770000Y-72975000D01*
X153570000Y-77175000D02*
X158670000Y-77175000D01*
X147670000Y-74975000D02*
G75*
G02*
X149670000Y-72975000I1999999J1D01*
G01*
X151570000Y-79175000D02*
G75*
G02*
X153570000Y-77175000I1999999J1D01*
G01*
G04 #@! TO.C,SW8*
X130620000Y-92025000D02*
X135720000Y-92025000D01*
X134520000Y-96225000D02*
X139620000Y-96225000D01*
X128620000Y-94025000D02*
G75*
G02*
X130620000Y-92025000I1999999J1D01*
G01*
X132520000Y-98225000D02*
G75*
G02*
X134520000Y-96225000I1999999J1D01*
G01*
G04 #@! TO.C,SW7*
X187770000Y-72975000D02*
X192870000Y-72975000D01*
X191670000Y-77175000D02*
X196770000Y-77175000D01*
X185770000Y-74975000D02*
G75*
G02*
X187770000Y-72975000I1999999J1D01*
G01*
X189670000Y-79175000D02*
G75*
G02*
X191670000Y-77175000I1999999J1D01*
G01*
G04 #@! TO.C,SW10*
X168720000Y-92025000D02*
X173820000Y-92025000D01*
X172620000Y-96225000D02*
X177720000Y-96225000D01*
X166720000Y-94025000D02*
G75*
G02*
X168720000Y-92025000I1999999J1D01*
G01*
X170620000Y-98225000D02*
G75*
G02*
X172620000Y-96225000I1999999J1D01*
G01*
G04 #@! TO.C,SW3*
X168720000Y-53925000D02*
X173820000Y-53925000D01*
X172620000Y-58125000D02*
X177720000Y-58125000D01*
X166720000Y-55925000D02*
G75*
G02*
X168720000Y-53925000I1999999J1D01*
G01*
X170620000Y-60125000D02*
G75*
G02*
X172620000Y-58125000I1999999J1D01*
G01*
G04 #@! TO.C,SW1*
X130620000Y-53925000D02*
X135720000Y-53925000D01*
X134520000Y-58125000D02*
X139620000Y-58125000D01*
X128620000Y-55925000D02*
G75*
G02*
X130620000Y-53925000I1999999J1D01*
G01*
X132520000Y-60125000D02*
G75*
G02*
X134520000Y-58125000I1999999J1D01*
G01*
G04 #@! TO.C,SW2*
X149670000Y-53925000D02*
X154770000Y-53925000D01*
X153570000Y-58125000D02*
X158670000Y-58125000D01*
X147670000Y-55925000D02*
G75*
G02*
X149670000Y-53925000I1999999J1D01*
G01*
X151570000Y-60125000D02*
G75*
G02*
X153570000Y-58125000I1999999J1D01*
G01*
G04 #@! TO.C,R2*
X167777064Y-69240000D02*
X166322936Y-69240000D01*
X167777064Y-71060000D02*
X166322936Y-71060000D01*
G04 #@! TO.C,D4*
X184918000Y-66825000D02*
X184918000Y-71235000D01*
X184918000Y-71235000D02*
X187138000Y-71235000D01*
X187138000Y-71235000D02*
X187138000Y-66825000D01*
G04 #@! TO.C,J4*
X134702500Y-105060000D02*
X134702500Y-103140000D01*
X134987500Y-103140000D02*
X134702500Y-103140000D01*
X134987500Y-103140000D02*
X134987500Y-101910000D01*
X136257500Y-105060000D02*
X134702500Y-105060000D01*
X137527500Y-103140000D02*
X136157500Y-103140000D01*
X138797500Y-105060000D02*
X137427500Y-105060000D01*
X140067500Y-103140000D02*
X138697500Y-103140000D01*
X141522500Y-103140000D02*
X141237500Y-103140000D01*
X141522500Y-105060000D02*
X139967500Y-105060000D01*
X141522500Y-105060000D02*
X141522500Y-103140000D01*
G04 #@! TO.C,D10*
X162185000Y-102258000D02*
X162185000Y-106668000D01*
X162185000Y-106668000D02*
X164405000Y-106668000D01*
X164405000Y-106668000D02*
X164405000Y-102258000D01*
G04 #@! TO.C,D8*
X194160000Y-85242000D02*
X194160000Y-87462000D01*
X194160000Y-87462000D02*
X198570000Y-87462000D01*
X198570000Y-85242000D02*
X194160000Y-85242000D01*
G04 #@! TO.C,D9*
X143135000Y-102258000D02*
X143135000Y-106668000D01*
X143135000Y-106668000D02*
X145355000Y-106668000D01*
X145355000Y-106668000D02*
X145355000Y-102258000D01*
G04 #@! TO.C,R5*
X167777064Y-88540000D02*
X166322936Y-88540000D01*
X167777064Y-90360000D02*
X166322936Y-90360000D01*
G04 #@! TO.C,D11*
X181235000Y-102258000D02*
X181235000Y-106668000D01*
X181235000Y-106668000D02*
X183455000Y-106668000D01*
X183455000Y-106668000D02*
X183455000Y-102258000D01*
G04 #@! TO.C,R4*
X148727064Y-88540000D02*
X147272936Y-88540000D01*
X148727064Y-90360000D02*
X147272936Y-90360000D01*
G04 #@! TO.C,D3*
X181235000Y-66822000D02*
X181235000Y-71232000D01*
X181235000Y-71232000D02*
X183455000Y-71232000D01*
X183455000Y-71232000D02*
X183455000Y-66822000D01*
G04 #@! TO.C,D7*
X181235000Y-86126000D02*
X181235000Y-90536000D01*
X181235000Y-90536000D02*
X183455000Y-90536000D01*
X183455000Y-90536000D02*
X183455000Y-86126000D01*
G04 #@! TO.C,R1*
X148727064Y-69240000D02*
X147272936Y-69240000D01*
X148727064Y-71060000D02*
X147272936Y-71060000D01*
G04 #@! TO.C,D5*
X143135000Y-86126000D02*
X143135000Y-90536000D01*
X143135000Y-90536000D02*
X145355000Y-90536000D01*
X145355000Y-90536000D02*
X145355000Y-86126000D01*
G04 #@! TO.C,J3*
X134702500Y-86010000D02*
X134702500Y-84090000D01*
X134987500Y-84090000D02*
X134702500Y-84090000D01*
X134987500Y-84090000D02*
X134987500Y-82860000D01*
X136257500Y-86010000D02*
X134702500Y-86010000D01*
X137527500Y-84090000D02*
X136157500Y-84090000D01*
X138797500Y-86010000D02*
X137427500Y-86010000D01*
X140067500Y-84090000D02*
X138697500Y-84090000D01*
X141522500Y-84090000D02*
X141237500Y-84090000D01*
X141522500Y-86010000D02*
X139967500Y-86010000D01*
X141522500Y-86010000D02*
X141522500Y-84090000D01*
G04 #@! TO.C,R6*
X186827064Y-88540000D02*
X185372936Y-88540000D01*
X186827064Y-90360000D02*
X185372936Y-90360000D01*
G04 #@! TO.C,D2*
X162185000Y-66822000D02*
X162185000Y-71232000D01*
X162185000Y-71232000D02*
X164405000Y-71232000D01*
X164405000Y-71232000D02*
X164405000Y-66822000D01*
G04 #@! TO.C,D12*
X194160000Y-104038000D02*
X194160000Y-106258000D01*
X194160000Y-106258000D02*
X198570000Y-106258000D01*
X198570000Y-104038000D02*
X194160000Y-104038000D01*
G04 #@! TO.C,D1*
X143135000Y-66822000D02*
X143135000Y-71232000D01*
X143135000Y-71232000D02*
X145355000Y-71232000D01*
X145355000Y-71232000D02*
X145355000Y-66822000D01*
G04 #@! TO.C,D6*
X162185000Y-86126000D02*
X162185000Y-90536000D01*
X162185000Y-90536000D02*
X164405000Y-90536000D01*
X164405000Y-90536000D02*
X164405000Y-86126000D01*
G04 #@! TD*
M02*
