G04 #@! TF.GenerationSoftware,KiCad,Pcbnew,8.0.6*
G04 #@! TF.CreationDate,2024-11-16T10:54:58+01:00*
G04 #@! TF.ProjectId,SwitchPCB,53776974-6368-4504-9342-2e6b69636164,rev?*
G04 #@! TF.SameCoordinates,Original*
G04 #@! TF.FileFunction,Copper,L1,Top*
G04 #@! TF.FilePolarity,Positive*
%FSLAX46Y46*%
G04 Gerber Fmt 4.6, Leading zero omitted, Abs format (unit mm)*
G04 Created by KiCad (PCBNEW 8.0.6) date 2024-11-16 10:54:58*
%MOMM*%
%LPD*%
G01*
G04 APERTURE LIST*
G04 #@! TA.AperFunction,ComponentPad*
%ADD10R,2.000000X2.000000*%
G04 #@! TD*
G04 #@! TA.AperFunction,ComponentPad*
%ADD11C,2.000000*%
G04 #@! TD*
G04 #@! TA.AperFunction,ComponentPad*
%ADD12R,2.000000X3.200000*%
G04 #@! TD*
G04 #@! TA.AperFunction,ViaPad*
%ADD13C,0.800000*%
G04 #@! TD*
G04 #@! TA.AperFunction,Conductor*
%ADD14C,0.400000*%
G04 #@! TD*
G04 APERTURE END LIST*
D10*
G04 #@! TO.P,ROT1,A,A*
G04 #@! TO.N,/PINB*
X194370000Y-53575000D03*
D11*
G04 #@! TO.P,ROT1,B,B*
G04 #@! TO.N,/PINA*
X189370000Y-53575000D03*
G04 #@! TO.P,ROT1,C,C*
G04 #@! TO.N,/BOARD_GND*
X191870000Y-53575000D03*
D12*
G04 #@! TO.P,ROT1,MP*
G04 #@! TO.N,N/C*
X197470000Y-61075000D03*
X186270000Y-61075000D03*
D11*
G04 #@! TO.P,ROT1,S1,S1*
G04 #@! TO.N,Net-(D4-A)*
X189370000Y-68075000D03*
G04 #@! TO.P,ROT1,S2,S2*
G04 #@! TO.N,/COL3*
X194370000Y-68075000D03*
G04 #@! TD*
D13*
G04 #@! TO.N,/PINA*
X138112500Y-102750000D03*
G04 #@! TO.N,/COL2*
X165735000Y-77335000D03*
X139400000Y-82000000D03*
G04 #@! TO.N,/ROW1*
X137800000Y-97400000D03*
X144245000Y-89626000D03*
G04 #@! TO.N,/PINB*
X139382500Y-105450000D03*
G04 #@! TO.N,/COL3*
X142800000Y-84200000D03*
X184785000Y-77335000D03*
G04 #@! TO.N,/ROW0*
X143200000Y-80200000D03*
X144245000Y-70322000D03*
G04 #@! TD*
D14*
G04 #@! TO.N,/PINA*
X190070000Y-54275000D02*
X189370000Y-53575000D01*
X166255040Y-93393792D02*
X158042625Y-101606207D01*
X193539339Y-77139339D02*
X192363792Y-75963792D01*
X138880698Y-103200000D02*
X154194869Y-103200000D01*
X190844365Y-83400000D02*
X189653963Y-83400000D01*
X193539339Y-82260660D02*
X193500000Y-82300000D01*
X138112500Y-102750000D02*
X138337500Y-102975000D01*
X180593792Y-90206207D02*
X185806207Y-84993792D01*
X176746036Y-91800000D02*
X170102796Y-91800000D01*
X190770000Y-72116036D02*
X190770000Y-55964949D01*
X189653963Y-83400000D02*
G75*
G03*
X185806236Y-84993821I37J-5441500D01*
G01*
X180593792Y-90206207D02*
G75*
G02*
X176746036Y-91800010I-3847792J3847807D01*
G01*
X193500000Y-82300000D02*
G75*
G02*
X190844365Y-83399986I-2655600J2655600D01*
G01*
X170102796Y-91800000D02*
G75*
G03*
X166255052Y-93393804I4J-5441500D01*
G01*
X190070000Y-54275000D02*
G75*
G02*
X190770021Y-55964949I-1690000J-1690000D01*
G01*
X158042625Y-101606207D02*
G75*
G02*
X154194869Y-103199963I-3847725J3847807D01*
G01*
X194600000Y-79700000D02*
G75*
G02*
X193539335Y-82260656I-3621300J0D01*
G01*
X138337500Y-102975000D02*
G75*
G03*
X138880698Y-103200001I543200J543200D01*
G01*
X190770000Y-72116036D02*
G75*
G03*
X192363800Y-75963784I5441600J36D01*
G01*
X193539339Y-77139339D02*
G75*
G02*
X194600006Y-79700000I-2560639J-2560661D01*
G01*
G04 #@! TO.N,/COL2*
X139400000Y-82000000D02*
X139900000Y-82500000D01*
X157816036Y-83000000D02*
X141107106Y-83000000D01*
X165735000Y-77335000D02*
X161663792Y-81406207D01*
X139900000Y-82500000D02*
G75*
G03*
X141107106Y-82999997I1207100J1207100D01*
G01*
X161663792Y-81406207D02*
G75*
G02*
X157816036Y-83000010I-3847792J3847807D01*
G01*
G04 #@! TO.N,/ROW1*
X143775127Y-91424872D02*
X137800000Y-97400000D01*
X144245000Y-89626000D02*
X144245000Y-90290500D01*
X144245000Y-90290500D02*
G75*
G02*
X143775139Y-91424884I-1604300J0D01*
G01*
G04 #@! TO.N,/PINB*
X195800000Y-70551471D02*
X195800000Y-56016162D01*
X176000000Y-99500000D02*
X176000000Y-98648528D01*
X195085000Y-54290000D02*
X194370000Y-53575000D01*
X178048528Y-96600000D02*
X178800000Y-96600000D01*
X174797918Y-102402081D02*
X173343792Y-103856207D01*
X195200000Y-79472792D02*
X195200000Y-80000000D01*
X193927207Y-83072792D02*
X181531370Y-95468629D01*
X139382500Y-105450000D02*
X169496036Y-105450000D01*
X197000000Y-73448528D02*
X197000000Y-75127207D01*
X196400000Y-72000000D02*
G75*
G02*
X196999988Y-73448528I-1448500J-1448500D01*
G01*
X196100000Y-77300000D02*
G75*
G03*
X195199997Y-79472792I2172800J-2172800D01*
G01*
X195085000Y-54290000D02*
G75*
G02*
X195800015Y-56016162I-1726200J-1726200D01*
G01*
X173343792Y-103856207D02*
G75*
G02*
X169496036Y-105450010I-3847792J3847807D01*
G01*
X178048528Y-96600000D02*
G75*
G03*
X176599992Y-97199992I-28J-2048500D01*
G01*
X176000000Y-99500000D02*
G75*
G02*
X174797926Y-102402089I-4104200J0D01*
G01*
X195800000Y-70551471D02*
G75*
G03*
X196399992Y-72000008I2048500J-29D01*
G01*
X181531370Y-95468629D02*
G75*
G02*
X178800000Y-96600012I-2731370J2731329D01*
G01*
X176600000Y-97200000D02*
G75*
G03*
X176000012Y-98648528I1448500J-1448500D01*
G01*
X195200000Y-80000000D02*
G75*
G02*
X193927211Y-83072796I-4345600J0D01*
G01*
X197000000Y-75127207D02*
G75*
G02*
X196099998Y-77299998I-3072800J7D01*
G01*
G04 #@! TO.N,/COL3*
X175666036Y-84200000D02*
X142800000Y-84200000D01*
X179513792Y-82606207D02*
X184785000Y-77335000D01*
X179513792Y-82606207D02*
G75*
G02*
X175666036Y-84200010I-3847792J3847807D01*
G01*
G04 #@! TO.N,/ROW0*
X143722500Y-70844500D02*
X144245000Y-70322000D01*
X143200000Y-72105926D02*
X143200000Y-80200000D01*
X143722500Y-70844500D02*
G75*
G03*
X143200011Y-72105926I1261400J-1261400D01*
G01*
G04 #@! TD*
M02*
