M48
; DRILL file {KiCad 8.0.6} date 2024-11-16T10:55:00+0100
; FORMAT={-:-/ absolute / metric / decimal}
; #@! TF.CreationDate,2024-11-16T10:55:00+01:00
; #@! TF.GenerationSoftware,Kicad,Pcbnew,8.0.6
; #@! TF.FileFunction,NonPlated,1,2,NPTH
FMAT,2
METRIC
; #@! TA.AperFunction,NonPlated,NPTH,ComponentDrill
T1C1.750
; #@! TA.AperFunction,NonPlated,NPTH,ComponentDrill
T2C3.050
; #@! TA.AperFunction,NonPlated,NPTH,ComponentDrill
T3C3.200
; #@! TA.AperFunction,NonPlated,NPTH,ComponentDrill
T4C4.000
%
G90
G05
T1
X129.64Y-60.825
X129.64Y-79.875
X129.64Y-98.925
X139.8Y-60.825
X139.8Y-79.875
X139.8Y-98.925
X148.69Y-60.825
X148.69Y-79.875
X148.69Y-98.925
X158.85Y-60.825
X158.85Y-79.875
X158.85Y-98.925
X167.74Y-60.825
X167.74Y-79.875
X167.74Y-98.925
X177.9Y-60.825
X177.9Y-79.875
X177.9Y-98.925
X186.79Y-79.875
X186.79Y-98.925
X196.95Y-79.875
X196.95Y-98.925
T2
X130.91Y-58.285
X130.91Y-77.335
X130.91Y-96.385
X137.26Y-55.745
X137.26Y-74.795
X137.26Y-93.845
X149.96Y-58.285
X149.96Y-77.335
X149.96Y-96.385
X156.31Y-55.745
X156.31Y-74.795
X156.31Y-93.845
X169.01Y-58.285
X169.01Y-77.335
X169.01Y-96.385
X175.36Y-55.745
X175.36Y-74.795
X175.36Y-93.845
X188.06Y-77.335
X188.06Y-96.385
X194.41Y-74.795
X194.41Y-93.845
T3
X124.2Y-63.0
X124.2Y-103.0
T4
X134.72Y-60.825
X134.72Y-79.875
X134.72Y-98.925
X153.77Y-60.825
X153.77Y-79.875
X153.77Y-98.925
X172.82Y-60.825
X172.82Y-79.875
X172.82Y-98.925
X191.87Y-79.875
X191.87Y-98.925
M30
