G04 #@! TF.GenerationSoftware,KiCad,Pcbnew,8.0.6*
G04 #@! TF.CreationDate,2024-11-16T10:54:58+01:00*
G04 #@! TF.ProjectId,SwitchPCB,53776974-6368-4504-9342-2e6b69636164,rev?*
G04 #@! TF.SameCoordinates,Original*
G04 #@! TF.FileFunction,Paste,Bot*
G04 #@! TF.FilePolarity,Positive*
%FSLAX46Y46*%
G04 Gerber Fmt 4.6, Leading zero omitted, Abs format (unit mm)*
G04 Created by KiCad (PCBNEW 8.0.6) date 2024-11-16 10:54:58*
%MOMM*%
%LPD*%
G01*
G04 APERTURE LIST*
G04 Aperture macros list*
%AMRoundRect*
0 Rectangle with rounded corners*
0 $1 Rounding radius*
0 $2 $3 $4 $5 $6 $7 $8 $9 X,Y pos of 4 corners*
0 Add a 4 corners polygon primitive as box body*
4,1,4,$2,$3,$4,$5,$6,$7,$8,$9,$2,$3,0*
0 Add four circle primitives for the rounded corners*
1,1,$1+$1,$2,$3*
1,1,$1+$1,$4,$5*
1,1,$1+$1,$6,$7*
1,1,$1+$1,$8,$9*
0 Add four rect primitives between the rounded corners*
20,1,$1+$1,$2,$3,$4,$5,0*
20,1,$1+$1,$4,$5,$6,$7,0*
20,1,$1+$1,$6,$7,$8,$9,0*
20,1,$1+$1,$8,$9,$2,$3,0*%
G04 Aperture macros list end*
%ADD10RoundRect,0.250000X-1.025000X-1.000000X1.025000X-1.000000X1.025000X1.000000X-1.025000X1.000000X0*%
%ADD11RoundRect,0.250000X-0.312500X-0.625000X0.312500X-0.625000X0.312500X0.625000X-0.312500X0.625000X0*%
%ADD12RoundRect,0.250000X0.600000X-0.400000X0.600000X0.400000X-0.600000X0.400000X-0.600000X-0.400000X0*%
%ADD13R,0.650000X1.800000*%
%ADD14RoundRect,0.250000X-0.400000X-0.600000X0.400000X-0.600000X0.400000X0.600000X-0.400000X0.600000X0*%
G04 APERTURE END LIST*
D10*
G04 #@! TO.C,SW9*
X146685000Y-96385000D03*
X159612000Y-93845000D03*
G04 #@! TD*
G04 #@! TO.C,SW11*
X184785000Y-96385000D03*
X197712000Y-93845000D03*
G04 #@! TD*
G04 #@! TO.C,SW4*
X127635000Y-77335000D03*
X140562000Y-74795000D03*
G04 #@! TD*
G04 #@! TO.C,SW6*
X165735000Y-77335000D03*
X178662000Y-74795000D03*
G04 #@! TD*
G04 #@! TO.C,SW5*
X146685000Y-77335000D03*
X159612000Y-74795000D03*
G04 #@! TD*
G04 #@! TO.C,SW8*
X127635000Y-96385000D03*
X140562000Y-93845000D03*
G04 #@! TD*
G04 #@! TO.C,SW7*
X184785000Y-77335000D03*
X197712000Y-74795000D03*
G04 #@! TD*
G04 #@! TO.C,SW10*
X165735000Y-96385000D03*
X178662000Y-93845000D03*
G04 #@! TD*
G04 #@! TO.C,SW3*
X165735000Y-58285000D03*
X178662000Y-55745000D03*
G04 #@! TD*
G04 #@! TO.C,SW1*
X127635000Y-58285000D03*
X140562000Y-55745000D03*
G04 #@! TD*
G04 #@! TO.C,SW2*
X146685000Y-58285000D03*
X159612000Y-55745000D03*
G04 #@! TD*
D11*
G04 #@! TO.C,R2*
X165587500Y-70150000D03*
X168512500Y-70150000D03*
G04 #@! TD*
D12*
G04 #@! TO.C,D4*
X186028000Y-70325000D03*
X186028000Y-66825000D03*
G04 #@! TD*
D13*
G04 #@! TO.C,J4*
X135572500Y-102750000D03*
X136842500Y-105450000D03*
X138112500Y-102750000D03*
X139382500Y-105450000D03*
X140652500Y-102750000D03*
G04 #@! TD*
D12*
G04 #@! TO.C,D10*
X163295000Y-105758000D03*
X163295000Y-102258000D03*
G04 #@! TD*
D14*
G04 #@! TO.C,D8*
X195070000Y-86352000D03*
X198570000Y-86352000D03*
G04 #@! TD*
D12*
G04 #@! TO.C,D9*
X144245000Y-105758000D03*
X144245000Y-102258000D03*
G04 #@! TD*
D11*
G04 #@! TO.C,R5*
X165587500Y-89450000D03*
X168512500Y-89450000D03*
G04 #@! TD*
D12*
G04 #@! TO.C,D11*
X182345000Y-105758000D03*
X182345000Y-102258000D03*
G04 #@! TD*
D11*
G04 #@! TO.C,R4*
X146537500Y-89450000D03*
X149462500Y-89450000D03*
G04 #@! TD*
D12*
G04 #@! TO.C,D3*
X182345000Y-70322000D03*
X182345000Y-66822000D03*
G04 #@! TD*
G04 #@! TO.C,D7*
X182345000Y-89626000D03*
X182345000Y-86126000D03*
G04 #@! TD*
D11*
G04 #@! TO.C,R1*
X146537500Y-70150000D03*
X149462500Y-70150000D03*
G04 #@! TD*
D12*
G04 #@! TO.C,D5*
X144245000Y-89626000D03*
X144245000Y-86126000D03*
G04 #@! TD*
D13*
G04 #@! TO.C,J3*
X135572500Y-83700000D03*
X136842500Y-86400000D03*
X138112500Y-83700000D03*
X139382500Y-86400000D03*
X140652500Y-83700000D03*
G04 #@! TD*
D11*
G04 #@! TO.C,R6*
X184637500Y-89450000D03*
X187562500Y-89450000D03*
G04 #@! TD*
D12*
G04 #@! TO.C,D2*
X163295000Y-70322000D03*
X163295000Y-66822000D03*
G04 #@! TD*
D14*
G04 #@! TO.C,D12*
X195070000Y-105148000D03*
X198570000Y-105148000D03*
G04 #@! TD*
D12*
G04 #@! TO.C,D1*
X144245000Y-70322000D03*
X144245000Y-66822000D03*
G04 #@! TD*
G04 #@! TO.C,D6*
X163295000Y-89626000D03*
X163295000Y-86126000D03*
G04 #@! TD*
M02*
