G04 #@! TF.GenerationSoftware,KiCad,Pcbnew,8.0.6*
G04 #@! TF.CreationDate,2024-11-16T10:55:05+01:00*
G04 #@! TF.ProjectId,MCUPCB,4d435550-4342-42e6-9b69-6361645f7063,rev?*
G04 #@! TF.SameCoordinates,Original*
G04 #@! TF.FileFunction,Legend,Top*
G04 #@! TF.FilePolarity,Positive*
%FSLAX46Y46*%
G04 Gerber Fmt 4.6, Leading zero omitted, Abs format (unit mm)*
G04 Created by KiCad (PCBNEW 8.0.6) date 2024-11-16 10:55:05*
%MOMM*%
%LPD*%
G01*
G04 APERTURE LIST*
%ADD10C,0.150000*%
%ADD11C,0.120000*%
G04 APERTURE END LIST*
D10*
X109544866Y-71804819D02*
X109211533Y-71328628D01*
X108973438Y-71804819D02*
X108973438Y-70804819D01*
X108973438Y-70804819D02*
X109354390Y-70804819D01*
X109354390Y-70804819D02*
X109449628Y-70852438D01*
X109449628Y-70852438D02*
X109497247Y-70900057D01*
X109497247Y-70900057D02*
X109544866Y-70995295D01*
X109544866Y-70995295D02*
X109544866Y-71138152D01*
X109544866Y-71138152D02*
X109497247Y-71233390D01*
X109497247Y-71233390D02*
X109449628Y-71281009D01*
X109449628Y-71281009D02*
X109354390Y-71328628D01*
X109354390Y-71328628D02*
X108973438Y-71328628D01*
X109973438Y-71281009D02*
X110306771Y-71281009D01*
X110449628Y-71804819D02*
X109973438Y-71804819D01*
X109973438Y-71804819D02*
X109973438Y-70804819D01*
X109973438Y-70804819D02*
X110449628Y-70804819D01*
X111211533Y-71281009D02*
X110878200Y-71281009D01*
X110878200Y-71804819D02*
X110878200Y-70804819D01*
X110878200Y-70804819D02*
X111354390Y-70804819D01*
X111878200Y-70804819D02*
X111878200Y-71042914D01*
X111640105Y-70947676D02*
X111878200Y-71042914D01*
X111878200Y-71042914D02*
X112116295Y-70947676D01*
X111735343Y-71233390D02*
X111878200Y-71042914D01*
X111878200Y-71042914D02*
X112021057Y-71233390D01*
X112640105Y-70804819D02*
X112640105Y-71042914D01*
X112402010Y-70947676D02*
X112640105Y-71042914D01*
X112640105Y-71042914D02*
X112878200Y-70947676D01*
X112497248Y-71233390D02*
X112640105Y-71042914D01*
X112640105Y-71042914D02*
X112782962Y-71233390D01*
X120010019Y-116583333D02*
X120724304Y-116583333D01*
X120724304Y-116583333D02*
X120867161Y-116630952D01*
X120867161Y-116630952D02*
X120962400Y-116726190D01*
X120962400Y-116726190D02*
X121010019Y-116869047D01*
X121010019Y-116869047D02*
X121010019Y-116964285D01*
X120105257Y-116154761D02*
X120057638Y-116107142D01*
X120057638Y-116107142D02*
X120010019Y-116011904D01*
X120010019Y-116011904D02*
X120010019Y-115773809D01*
X120010019Y-115773809D02*
X120057638Y-115678571D01*
X120057638Y-115678571D02*
X120105257Y-115630952D01*
X120105257Y-115630952D02*
X120200495Y-115583333D01*
X120200495Y-115583333D02*
X120295733Y-115583333D01*
X120295733Y-115583333D02*
X120438590Y-115630952D01*
X120438590Y-115630952D02*
X121010019Y-116202380D01*
X121010019Y-116202380D02*
X121010019Y-115583333D01*
X120010019Y-97533333D02*
X120724304Y-97533333D01*
X120724304Y-97533333D02*
X120867161Y-97580952D01*
X120867161Y-97580952D02*
X120962400Y-97676190D01*
X120962400Y-97676190D02*
X121010019Y-97819047D01*
X121010019Y-97819047D02*
X121010019Y-97914285D01*
X121010019Y-96533333D02*
X121010019Y-97104761D01*
X121010019Y-96819047D02*
X120010019Y-96819047D01*
X120010019Y-96819047D02*
X120152876Y-96914285D01*
X120152876Y-96914285D02*
X120248114Y-97009523D01*
X120248114Y-97009523D02*
X120295733Y-97104761D01*
X109544866Y-111804819D02*
X109211533Y-111328628D01*
X108973438Y-111804819D02*
X108973438Y-110804819D01*
X108973438Y-110804819D02*
X109354390Y-110804819D01*
X109354390Y-110804819D02*
X109449628Y-110852438D01*
X109449628Y-110852438D02*
X109497247Y-110900057D01*
X109497247Y-110900057D02*
X109544866Y-110995295D01*
X109544866Y-110995295D02*
X109544866Y-111138152D01*
X109544866Y-111138152D02*
X109497247Y-111233390D01*
X109497247Y-111233390D02*
X109449628Y-111281009D01*
X109449628Y-111281009D02*
X109354390Y-111328628D01*
X109354390Y-111328628D02*
X108973438Y-111328628D01*
X109973438Y-111281009D02*
X110306771Y-111281009D01*
X110449628Y-111804819D02*
X109973438Y-111804819D01*
X109973438Y-111804819D02*
X109973438Y-110804819D01*
X109973438Y-110804819D02*
X110449628Y-110804819D01*
X111211533Y-111281009D02*
X110878200Y-111281009D01*
X110878200Y-111804819D02*
X110878200Y-110804819D01*
X110878200Y-110804819D02*
X111354390Y-110804819D01*
X111878200Y-110804819D02*
X111878200Y-111042914D01*
X111640105Y-110947676D02*
X111878200Y-111042914D01*
X111878200Y-111042914D02*
X112116295Y-110947676D01*
X111735343Y-111233390D02*
X111878200Y-111042914D01*
X111878200Y-111042914D02*
X112021057Y-111233390D01*
X112640105Y-110804819D02*
X112640105Y-111042914D01*
X112402010Y-110947676D02*
X112640105Y-111042914D01*
X112640105Y-111042914D02*
X112878200Y-110947676D01*
X112497248Y-111233390D02*
X112640105Y-111042914D01*
X112640105Y-111042914D02*
X112782962Y-111233390D01*
D11*
G04 #@! TO.C,J2*
X121555200Y-117360000D02*
X121555200Y-115140000D01*
X121555200Y-117360000D02*
X121665200Y-117360000D01*
X121565200Y-115140000D02*
X122935200Y-115140000D01*
X121665200Y-117360000D02*
X121665200Y-119190000D01*
X122835200Y-117360000D02*
X124205200Y-117360000D01*
X124105200Y-115140000D02*
X125475200Y-115140000D01*
X125375200Y-117360000D02*
X126745200Y-117360000D01*
X126645200Y-115140000D02*
X128015200Y-115140000D01*
X127915200Y-115140000D02*
X128025200Y-115140000D01*
X128025200Y-117360000D02*
X128025200Y-115140000D01*
G04 #@! TO.C,J1*
X121555200Y-98310000D02*
X121555200Y-96090000D01*
X121555200Y-98310000D02*
X121665200Y-98310000D01*
X121565200Y-96090000D02*
X122935200Y-96090000D01*
X121665200Y-98310000D02*
X121665200Y-100140000D01*
X122835200Y-98310000D02*
X124205200Y-98310000D01*
X124105200Y-96090000D02*
X125475200Y-96090000D01*
X125375200Y-98310000D02*
X126745200Y-98310000D01*
X126645200Y-96090000D02*
X128015200Y-96090000D01*
X127915200Y-96090000D02*
X128025200Y-96090000D01*
X128025200Y-98310000D02*
X128025200Y-96090000D01*
G04 #@! TD*
M02*
