G04 #@! TF.GenerationSoftware,KiCad,Pcbnew,8.0.6*
G04 #@! TF.CreationDate,2024-11-16T10:55:05+01:00*
G04 #@! TF.ProjectId,MCUPCB,4d435550-4342-42e6-9b69-6361645f7063,rev?*
G04 #@! TF.SameCoordinates,Original*
G04 #@! TF.FileFunction,Legend,Bot*
G04 #@! TF.FilePolarity,Positive*
%FSLAX46Y46*%
G04 Gerber Fmt 4.6, Leading zero omitted, Abs format (unit mm)*
G04 Created by KiCad (PCBNEW 8.0.6) date 2024-11-16 10:55:05*
%MOMM*%
%LPD*%
G01*
G04 APERTURE LIST*
%ADD10C,0.150000*%
G04 APERTURE END LIST*
D10*
X133751904Y-84026319D02*
X133751904Y-84835842D01*
X133751904Y-84835842D02*
X133704285Y-84931080D01*
X133704285Y-84931080D02*
X133656666Y-84978700D01*
X133656666Y-84978700D02*
X133561428Y-85026319D01*
X133561428Y-85026319D02*
X133370952Y-85026319D01*
X133370952Y-85026319D02*
X133275714Y-84978700D01*
X133275714Y-84978700D02*
X133228095Y-84931080D01*
X133228095Y-84931080D02*
X133180476Y-84835842D01*
X133180476Y-84835842D02*
X133180476Y-84026319D01*
X132180476Y-85026319D02*
X132751904Y-85026319D01*
X132466190Y-85026319D02*
X132466190Y-84026319D01*
X132466190Y-84026319D02*
X132561428Y-84169176D01*
X132561428Y-84169176D02*
X132656666Y-84264414D01*
X132656666Y-84264414D02*
X132751904Y-84312033D01*
X129470952Y-84926319D02*
X129804285Y-84450128D01*
X130042380Y-84926319D02*
X130042380Y-83926319D01*
X130042380Y-83926319D02*
X129661428Y-83926319D01*
X129661428Y-83926319D02*
X129566190Y-83973938D01*
X129566190Y-83973938D02*
X129518571Y-84021557D01*
X129518571Y-84021557D02*
X129470952Y-84116795D01*
X129470952Y-84116795D02*
X129470952Y-84259652D01*
X129470952Y-84259652D02*
X129518571Y-84354890D01*
X129518571Y-84354890D02*
X129566190Y-84402509D01*
X129566190Y-84402509D02*
X129661428Y-84450128D01*
X129661428Y-84450128D02*
X130042380Y-84450128D01*
X129042380Y-84926319D02*
X129042380Y-83926319D01*
X129042380Y-83926319D02*
X128661428Y-83926319D01*
X128661428Y-83926319D02*
X128566190Y-83973938D01*
X128566190Y-83973938D02*
X128518571Y-84021557D01*
X128518571Y-84021557D02*
X128470952Y-84116795D01*
X128470952Y-84116795D02*
X128470952Y-84259652D01*
X128470952Y-84259652D02*
X128518571Y-84354890D01*
X128518571Y-84354890D02*
X128566190Y-84402509D01*
X128566190Y-84402509D02*
X128661428Y-84450128D01*
X128661428Y-84450128D02*
X129042380Y-84450128D01*
X128089999Y-84021557D02*
X128042380Y-83973938D01*
X128042380Y-83973938D02*
X127947142Y-83926319D01*
X127947142Y-83926319D02*
X127709047Y-83926319D01*
X127709047Y-83926319D02*
X127613809Y-83973938D01*
X127613809Y-83973938D02*
X127566190Y-84021557D01*
X127566190Y-84021557D02*
X127518571Y-84116795D01*
X127518571Y-84116795D02*
X127518571Y-84212033D01*
X127518571Y-84212033D02*
X127566190Y-84354890D01*
X127566190Y-84354890D02*
X128137618Y-84926319D01*
X128137618Y-84926319D02*
X127518571Y-84926319D01*
X126899523Y-83926319D02*
X126804285Y-83926319D01*
X126804285Y-83926319D02*
X126709047Y-83973938D01*
X126709047Y-83973938D02*
X126661428Y-84021557D01*
X126661428Y-84021557D02*
X126613809Y-84116795D01*
X126613809Y-84116795D02*
X126566190Y-84307271D01*
X126566190Y-84307271D02*
X126566190Y-84545366D01*
X126566190Y-84545366D02*
X126613809Y-84735842D01*
X126613809Y-84735842D02*
X126661428Y-84831080D01*
X126661428Y-84831080D02*
X126709047Y-84878700D01*
X126709047Y-84878700D02*
X126804285Y-84926319D01*
X126804285Y-84926319D02*
X126899523Y-84926319D01*
X126899523Y-84926319D02*
X126994761Y-84878700D01*
X126994761Y-84878700D02*
X127042380Y-84831080D01*
X127042380Y-84831080D02*
X127089999Y-84735842D01*
X127089999Y-84735842D02*
X127137618Y-84545366D01*
X127137618Y-84545366D02*
X127137618Y-84307271D01*
X127137618Y-84307271D02*
X127089999Y-84116795D01*
X127089999Y-84116795D02*
X127042380Y-84021557D01*
X127042380Y-84021557D02*
X126994761Y-83973938D01*
X126994761Y-83973938D02*
X126899523Y-83926319D01*
X125709047Y-84259652D02*
X125709047Y-84926319D01*
X125947142Y-83878700D02*
X126185237Y-84592985D01*
X126185237Y-84592985D02*
X125566190Y-84592985D01*
X124994761Y-83926319D02*
X124899523Y-83926319D01*
X124899523Y-83926319D02*
X124804285Y-83973938D01*
X124804285Y-83973938D02*
X124756666Y-84021557D01*
X124756666Y-84021557D02*
X124709047Y-84116795D01*
X124709047Y-84116795D02*
X124661428Y-84307271D01*
X124661428Y-84307271D02*
X124661428Y-84545366D01*
X124661428Y-84545366D02*
X124709047Y-84735842D01*
X124709047Y-84735842D02*
X124756666Y-84831080D01*
X124756666Y-84831080D02*
X124804285Y-84878700D01*
X124804285Y-84878700D02*
X124899523Y-84926319D01*
X124899523Y-84926319D02*
X124994761Y-84926319D01*
X124994761Y-84926319D02*
X125089999Y-84878700D01*
X125089999Y-84878700D02*
X125137618Y-84831080D01*
X125137618Y-84831080D02*
X125185237Y-84735842D01*
X125185237Y-84735842D02*
X125232856Y-84545366D01*
X125232856Y-84545366D02*
X125232856Y-84307271D01*
X125232856Y-84307271D02*
X125185237Y-84116795D01*
X125185237Y-84116795D02*
X125137618Y-84021557D01*
X125137618Y-84021557D02*
X125089999Y-83973938D01*
X125089999Y-83973938D02*
X124994761Y-83926319D01*
X124232856Y-84545366D02*
X123470952Y-84545366D01*
X123089999Y-83926319D02*
X122423333Y-83926319D01*
X122423333Y-83926319D02*
X123089999Y-84926319D01*
X123089999Y-84926319D02*
X122423333Y-84926319D01*
X121661428Y-84878700D02*
X121756666Y-84926319D01*
X121756666Y-84926319D02*
X121947142Y-84926319D01*
X121947142Y-84926319D02*
X122042380Y-84878700D01*
X122042380Y-84878700D02*
X122089999Y-84783461D01*
X122089999Y-84783461D02*
X122089999Y-84402509D01*
X122089999Y-84402509D02*
X122042380Y-84307271D01*
X122042380Y-84307271D02*
X121947142Y-84259652D01*
X121947142Y-84259652D02*
X121756666Y-84259652D01*
X121756666Y-84259652D02*
X121661428Y-84307271D01*
X121661428Y-84307271D02*
X121613809Y-84402509D01*
X121613809Y-84402509D02*
X121613809Y-84497747D01*
X121613809Y-84497747D02*
X122089999Y-84592985D01*
X121185237Y-84926319D02*
X121185237Y-84259652D01*
X121185237Y-84450128D02*
X121137618Y-84354890D01*
X121137618Y-84354890D02*
X121089999Y-84307271D01*
X121089999Y-84307271D02*
X120994761Y-84259652D01*
X120994761Y-84259652D02*
X120899523Y-84259652D01*
X120423332Y-84926319D02*
X120518570Y-84878700D01*
X120518570Y-84878700D02*
X120566189Y-84831080D01*
X120566189Y-84831080D02*
X120613808Y-84735842D01*
X120613808Y-84735842D02*
X120613808Y-84450128D01*
X120613808Y-84450128D02*
X120566189Y-84354890D01*
X120566189Y-84354890D02*
X120518570Y-84307271D01*
X120518570Y-84307271D02*
X120423332Y-84259652D01*
X120423332Y-84259652D02*
X120280475Y-84259652D01*
X120280475Y-84259652D02*
X120185237Y-84307271D01*
X120185237Y-84307271D02*
X120137618Y-84354890D01*
X120137618Y-84354890D02*
X120089999Y-84450128D01*
X120089999Y-84450128D02*
X120089999Y-84735842D01*
X120089999Y-84735842D02*
X120137618Y-84831080D01*
X120137618Y-84831080D02*
X120185237Y-84878700D01*
X120185237Y-84878700D02*
X120280475Y-84926319D01*
X120280475Y-84926319D02*
X120423332Y-84926319D01*
M02*
