G04 #@! TF.GenerationSoftware,KiCad,Pcbnew,8.0.6*
G04 #@! TF.CreationDate,2024-11-16T10:55:05+01:00*
G04 #@! TF.ProjectId,MCUPCB,4d435550-4342-42e6-9b69-6361645f7063,rev?*
G04 #@! TF.SameCoordinates,Original*
G04 #@! TF.FileFunction,Copper,L2,Bot*
G04 #@! TF.FilePolarity,Positive*
%FSLAX46Y46*%
G04 Gerber Fmt 4.6, Leading zero omitted, Abs format (unit mm)*
G04 Created by KiCad (PCBNEW 8.0.6) date 2024-11-16 10:55:05*
%MOMM*%
%LPD*%
G01*
G04 APERTURE LIST*
G04 #@! TA.AperFunction,SMDPad,CuDef*
%ADD10R,3.500000X1.700000*%
G04 #@! TD*
G04 #@! TA.AperFunction,ComponentPad*
%ADD11C,1.000000*%
G04 #@! TD*
G04 #@! TA.AperFunction,SMDPad,CuDef*
%ADD12R,1.700000X3.500000*%
G04 #@! TD*
G04 APERTURE END LIST*
D10*
G04 #@! TO.P,U1,1,5V*
G04 #@! TO.N,unconnected-(U1-5V-Pad1)*
X135650000Y-60584500D03*
D11*
X134750000Y-60584500D03*
D10*
G04 #@! TO.P,U1,2,GND*
G04 #@! TO.N,GND*
X135650000Y-63124500D03*
D11*
X134750000Y-63124500D03*
D10*
G04 #@! TO.P,U1,3,3V3*
G04 #@! TO.N,unconnected-(U1-3V3-Pad3)*
X135650000Y-65664500D03*
D11*
X134750000Y-65664500D03*
D10*
G04 #@! TO.P,U1,4,GP29*
G04 #@! TO.N,unconnected-(U1-GP29-Pad4)*
X135650000Y-68204500D03*
D11*
X134750000Y-68204500D03*
D10*
G04 #@! TO.P,U1,5,GP28*
G04 #@! TO.N,unconnected-(U1-GP28-Pad5)*
X135650000Y-70744500D03*
D11*
X134750000Y-70744500D03*
D10*
G04 #@! TO.P,U1,6,GP27*
G04 #@! TO.N,unconnected-(U1-GP27-Pad6)*
X135600000Y-73284500D03*
D11*
X134750000Y-73284500D03*
D10*
G04 #@! TO.P,U1,7,GP26*
G04 #@! TO.N,unconnected-(U1-GP26-Pad7)*
X135600000Y-75824500D03*
D11*
X134750000Y-75824500D03*
D10*
G04 #@! TO.P,U1,8,GP15*
G04 #@! TO.N,/PINBM*
X135600000Y-78364500D03*
D11*
X134750000Y-78364500D03*
D10*
G04 #@! TO.P,U1,9,GP14*
G04 #@! TO.N,/PINAM*
X135600000Y-80904500D03*
D11*
X134750000Y-80904500D03*
G04 #@! TO.P,U1,10,GP0*
G04 #@! TO.N,unconnected-(U1-GP0-Pad10)*
X119510000Y-60584500D03*
D10*
X118610000Y-60584500D03*
D11*
G04 #@! TO.P,U1,11,GP1*
G04 #@! TO.N,unconnected-(U1-GP1-Pad11)*
X119510000Y-63124500D03*
D10*
X118610000Y-63124500D03*
D11*
G04 #@! TO.P,U1,12,GP2*
G04 #@! TO.N,unconnected-(U1-GP2-Pad12)*
X119510000Y-65664500D03*
D10*
X118610000Y-65664500D03*
D11*
G04 #@! TO.P,U1,13,GP3*
G04 #@! TO.N,unconnected-(U1-GP3-Pad13)*
X119510000Y-68204500D03*
D10*
X118610000Y-68204500D03*
D11*
G04 #@! TO.P,U1,14,GP4*
G04 #@! TO.N,unconnected-(U1-GP4-Pad14)*
X119510000Y-70744500D03*
D10*
X118610000Y-70744500D03*
D11*
G04 #@! TO.P,U1,15,GP5*
G04 #@! TO.N,unconnected-(U1-GP5-Pad15)*
X119510000Y-73284500D03*
D10*
X118610000Y-73284500D03*
D11*
G04 #@! TO.P,U1,16,GP6*
G04 #@! TO.N,unconnected-(U1-GP6-Pad16)*
X119510000Y-75824500D03*
D10*
X118610000Y-75824500D03*
D11*
G04 #@! TO.P,U1,17,GP7*
G04 #@! TO.N,/ROW1M*
X119510000Y-78364500D03*
D10*
X118610000Y-78364500D03*
D11*
G04 #@! TO.P,U1,18,GP8*
G04 #@! TO.N,/ROW2M*
X119510000Y-80904500D03*
D10*
X118610000Y-80904500D03*
D12*
G04 #@! TO.P,U1,19,GP13*
G04 #@! TO.N,/ROW0M*
X132210000Y-81804500D03*
D11*
X132210000Y-80904500D03*
D12*
G04 #@! TO.P,U1,20,GP12*
G04 #@! TO.N,/COL3M*
X129670000Y-81754500D03*
D11*
X129670000Y-80904500D03*
D12*
G04 #@! TO.P,U1,21,GP11*
G04 #@! TO.N,/COL2M*
X127130000Y-81754500D03*
D11*
X127130000Y-80904500D03*
D12*
G04 #@! TO.P,U1,22,GP10*
G04 #@! TO.N,/COL1M*
X124590000Y-81754500D03*
D11*
X124590000Y-80904500D03*
D12*
G04 #@! TO.P,U1,23,GP9*
G04 #@! TO.N,/COL0M*
X122050000Y-81754500D03*
D11*
X122050000Y-80904500D03*
G04 #@! TD*
G04 #@! TA.AperFunction,Conductor*
G04 #@! TO.N,GND*
G36*
X116357489Y-59370185D02*
G01*
X116403244Y-59422989D01*
X116413188Y-59492147D01*
X116406632Y-59517833D01*
X116365908Y-59627017D01*
X116362705Y-59656814D01*
X116359501Y-59686623D01*
X116359500Y-59686635D01*
X116359500Y-61482370D01*
X116359501Y-61482376D01*
X116365908Y-61541983D01*
X116416202Y-61676828D01*
X116416203Y-61676830D01*
X116493578Y-61780189D01*
X116517995Y-61845653D01*
X116503144Y-61913926D01*
X116493578Y-61928811D01*
X116416203Y-62032169D01*
X116416202Y-62032171D01*
X116365908Y-62167017D01*
X116359501Y-62226616D01*
X116359500Y-62226635D01*
X116359500Y-64022370D01*
X116359501Y-64022376D01*
X116365908Y-64081983D01*
X116416202Y-64216828D01*
X116416203Y-64216830D01*
X116493578Y-64320189D01*
X116517995Y-64385653D01*
X116503144Y-64453926D01*
X116493578Y-64468811D01*
X116416203Y-64572169D01*
X116416202Y-64572171D01*
X116365908Y-64707017D01*
X116359501Y-64766616D01*
X116359501Y-64766623D01*
X116359500Y-64766635D01*
X116359500Y-66562370D01*
X116359501Y-66562376D01*
X116365908Y-66621983D01*
X116416202Y-66756828D01*
X116416203Y-66756830D01*
X116493578Y-66860189D01*
X116517995Y-66925653D01*
X116503144Y-66993926D01*
X116493578Y-67008811D01*
X116416203Y-67112169D01*
X116416202Y-67112171D01*
X116365908Y-67247017D01*
X116359501Y-67306616D01*
X116359501Y-67306623D01*
X116359500Y-67306635D01*
X116359500Y-69102370D01*
X116359501Y-69102376D01*
X116365908Y-69161983D01*
X116416202Y-69296828D01*
X116416203Y-69296830D01*
X116493578Y-69400189D01*
X116517995Y-69465653D01*
X116503144Y-69533926D01*
X116493578Y-69548811D01*
X116416203Y-69652169D01*
X116416202Y-69652171D01*
X116365908Y-69787017D01*
X116359501Y-69846616D01*
X116359501Y-69846623D01*
X116359500Y-69846635D01*
X116359500Y-71642370D01*
X116359501Y-71642376D01*
X116365908Y-71701983D01*
X116416202Y-71836828D01*
X116416203Y-71836830D01*
X116493578Y-71940189D01*
X116517995Y-72005653D01*
X116503144Y-72073926D01*
X116493578Y-72088811D01*
X116416203Y-72192169D01*
X116416202Y-72192171D01*
X116365908Y-72327017D01*
X116364224Y-72342686D01*
X116359501Y-72386623D01*
X116359500Y-72386635D01*
X116359500Y-74182370D01*
X116359501Y-74182376D01*
X116365908Y-74241983D01*
X116416202Y-74376828D01*
X116416203Y-74376830D01*
X116493578Y-74480189D01*
X116517995Y-74545653D01*
X116503144Y-74613926D01*
X116493578Y-74628811D01*
X116416203Y-74732169D01*
X116416202Y-74732171D01*
X116365908Y-74867017D01*
X116359501Y-74926616D01*
X116359501Y-74926623D01*
X116359500Y-74926635D01*
X116359500Y-76722370D01*
X116359501Y-76722376D01*
X116365908Y-76781983D01*
X116416202Y-76916828D01*
X116416203Y-76916830D01*
X116493578Y-77020189D01*
X116517995Y-77085653D01*
X116503144Y-77153926D01*
X116493578Y-77168811D01*
X116416203Y-77272169D01*
X116416202Y-77272171D01*
X116365908Y-77407017D01*
X116359501Y-77466616D01*
X116359501Y-77466623D01*
X116359500Y-77466635D01*
X116359500Y-79262370D01*
X116359501Y-79262376D01*
X116365908Y-79321983D01*
X116416202Y-79456828D01*
X116416203Y-79456830D01*
X116493578Y-79560189D01*
X116517995Y-79625653D01*
X116503144Y-79693926D01*
X116493578Y-79708811D01*
X116416203Y-79812169D01*
X116416202Y-79812171D01*
X116365908Y-79947017D01*
X116359501Y-80006616D01*
X116359501Y-80006623D01*
X116359500Y-80006635D01*
X116359500Y-81802370D01*
X116359501Y-81802376D01*
X116365908Y-81861983D01*
X116416202Y-81996828D01*
X116416206Y-81996835D01*
X116502452Y-82112044D01*
X116502455Y-82112047D01*
X116617664Y-82198293D01*
X116617671Y-82198297D01*
X116752517Y-82248591D01*
X116752516Y-82248591D01*
X116759444Y-82249335D01*
X116812127Y-82255000D01*
X120407872Y-82254999D01*
X120467483Y-82248591D01*
X120532168Y-82224464D01*
X120601858Y-82219481D01*
X120663181Y-82252965D01*
X120696666Y-82314288D01*
X120699500Y-82340647D01*
X120699500Y-83552370D01*
X120699501Y-83552376D01*
X120705908Y-83611983D01*
X120756202Y-83746828D01*
X120756206Y-83746835D01*
X120842452Y-83862044D01*
X120842455Y-83862047D01*
X120957664Y-83948293D01*
X120957671Y-83948297D01*
X121092517Y-83998591D01*
X121092516Y-83998591D01*
X121099444Y-83999335D01*
X121152127Y-84005000D01*
X122947872Y-84004999D01*
X123007483Y-83998591D01*
X123142331Y-83948296D01*
X123245690Y-83870921D01*
X123311152Y-83846504D01*
X123379425Y-83861355D01*
X123394303Y-83870916D01*
X123497665Y-83948293D01*
X123497668Y-83948295D01*
X123497671Y-83948297D01*
X123632517Y-83998591D01*
X123632516Y-83998591D01*
X123639444Y-83999335D01*
X123692127Y-84005000D01*
X125487872Y-84004999D01*
X125547483Y-83998591D01*
X125682331Y-83948296D01*
X125785690Y-83870921D01*
X125851152Y-83846504D01*
X125919425Y-83861355D01*
X125934303Y-83870916D01*
X126037665Y-83948293D01*
X126037668Y-83948295D01*
X126037671Y-83948297D01*
X126172517Y-83998591D01*
X126172516Y-83998591D01*
X126179444Y-83999335D01*
X126232127Y-84005000D01*
X128027872Y-84004999D01*
X128087483Y-83998591D01*
X128222331Y-83948296D01*
X128325690Y-83870921D01*
X128391152Y-83846504D01*
X128459425Y-83861355D01*
X128474303Y-83870916D01*
X128577665Y-83948293D01*
X128577668Y-83948295D01*
X128577671Y-83948297D01*
X128712517Y-83998591D01*
X128712516Y-83998591D01*
X128719444Y-83999335D01*
X128772127Y-84005000D01*
X130567872Y-84004999D01*
X130627483Y-83998591D01*
X130762331Y-83948296D01*
X130762924Y-83947851D01*
X130834369Y-83894369D01*
X130899833Y-83869951D01*
X130968106Y-83884802D01*
X130996358Y-83905950D01*
X131002451Y-83912042D01*
X131002454Y-83912046D01*
X131002457Y-83912048D01*
X131117664Y-83998293D01*
X131117671Y-83998297D01*
X131252517Y-84048591D01*
X131252516Y-84048591D01*
X131259444Y-84049335D01*
X131312127Y-84055000D01*
X133107872Y-84054999D01*
X133167483Y-84048591D01*
X133302331Y-83998296D01*
X133417546Y-83912046D01*
X133503796Y-83796831D01*
X133554091Y-83661983D01*
X133560500Y-83602373D01*
X133560499Y-82359295D01*
X133580184Y-82292257D01*
X133632987Y-82246502D01*
X133702146Y-82236558D01*
X133727832Y-82243114D01*
X133742517Y-82248591D01*
X133742516Y-82248591D01*
X133749444Y-82249335D01*
X133802127Y-82255000D01*
X137397872Y-82254999D01*
X137457483Y-82248591D01*
X137592331Y-82198296D01*
X137707546Y-82112046D01*
X137793796Y-81996831D01*
X137844091Y-81861983D01*
X137850500Y-81802373D01*
X137850499Y-80006628D01*
X137844091Y-79947017D01*
X137793796Y-79812169D01*
X137716421Y-79708809D01*
X137692004Y-79643348D01*
X137706855Y-79575075D01*
X137716416Y-79560196D01*
X137793796Y-79456831D01*
X137844091Y-79321983D01*
X137850500Y-79262373D01*
X137850499Y-77466628D01*
X137844091Y-77407017D01*
X137793796Y-77272169D01*
X137716421Y-77168809D01*
X137692004Y-77103348D01*
X137706855Y-77035075D01*
X137716416Y-77020196D01*
X137793796Y-76916831D01*
X137844091Y-76781983D01*
X137850500Y-76722373D01*
X137850499Y-74926628D01*
X137844091Y-74867017D01*
X137814699Y-74788214D01*
X137793797Y-74732171D01*
X137793795Y-74732168D01*
X137779500Y-74713072D01*
X137716421Y-74628809D01*
X137692004Y-74563348D01*
X137706855Y-74495075D01*
X137716416Y-74480196D01*
X137793796Y-74376831D01*
X137844091Y-74241983D01*
X137850500Y-74182373D01*
X137850499Y-72386628D01*
X137844091Y-72327017D01*
X137793796Y-72192169D01*
X137793795Y-72192168D01*
X137793793Y-72192164D01*
X137739868Y-72120130D01*
X137715450Y-72054666D01*
X137730301Y-71986393D01*
X137751456Y-71958134D01*
X137757534Y-71952054D01*
X137757546Y-71952046D01*
X137843796Y-71836831D01*
X137894091Y-71701983D01*
X137900500Y-71642373D01*
X137900499Y-69846628D01*
X137894091Y-69787017D01*
X137843796Y-69652169D01*
X137766421Y-69548809D01*
X137742004Y-69483348D01*
X137756855Y-69415075D01*
X137766416Y-69400196D01*
X137843796Y-69296831D01*
X137894091Y-69161983D01*
X137900500Y-69102373D01*
X137900499Y-67306628D01*
X137894091Y-67247017D01*
X137843796Y-67112169D01*
X137766421Y-67008809D01*
X137742004Y-66943348D01*
X137756855Y-66875075D01*
X137766416Y-66860196D01*
X137843796Y-66756831D01*
X137894091Y-66621983D01*
X137900500Y-66562373D01*
X137900499Y-64766628D01*
X137894091Y-64707017D01*
X137843796Y-64572169D01*
X137766109Y-64468393D01*
X137741692Y-64402930D01*
X137756543Y-64334657D01*
X137766110Y-64319771D01*
X137843352Y-64216589D01*
X137843354Y-64216586D01*
X137893596Y-64081879D01*
X137893598Y-64081872D01*
X137899999Y-64022344D01*
X137900000Y-64022327D01*
X137900000Y-63374500D01*
X135524000Y-63374500D01*
X135456961Y-63354815D01*
X135411206Y-63302011D01*
X135400000Y-63250500D01*
X135400000Y-62998500D01*
X135419685Y-62931461D01*
X135472489Y-62885706D01*
X135524000Y-62874500D01*
X137900000Y-62874500D01*
X137900000Y-62226672D01*
X137899999Y-62226655D01*
X137893598Y-62167127D01*
X137893596Y-62167120D01*
X137843354Y-62032413D01*
X137843352Y-62032410D01*
X137766110Y-61929229D01*
X137741692Y-61863765D01*
X137756543Y-61795492D01*
X137766105Y-61780611D01*
X137843796Y-61676831D01*
X137894091Y-61541983D01*
X137900500Y-61482373D01*
X137900499Y-59686628D01*
X137894091Y-59627017D01*
X137870158Y-59562849D01*
X137865174Y-59493158D01*
X137898659Y-59431834D01*
X137959982Y-59398350D01*
X138029674Y-59403334D01*
X138074021Y-59431835D01*
X138663181Y-60020995D01*
X138696666Y-60082318D01*
X138699500Y-60108676D01*
X138699500Y-118691324D01*
X138679815Y-118758363D01*
X138663181Y-118779005D01*
X138029005Y-119413181D01*
X137967682Y-119446666D01*
X137941324Y-119449500D01*
X109158676Y-119449500D01*
X109091637Y-119429815D01*
X109070995Y-119413181D01*
X108436819Y-118779005D01*
X108403334Y-118717682D01*
X108400500Y-118691324D01*
X108400500Y-115028711D01*
X109027700Y-115028711D01*
X109027700Y-115271288D01*
X109059361Y-115511785D01*
X109122147Y-115746104D01*
X109214973Y-115970205D01*
X109214976Y-115970212D01*
X109336264Y-116180289D01*
X109336266Y-116180292D01*
X109336267Y-116180293D01*
X109483933Y-116372736D01*
X109483939Y-116372743D01*
X109655456Y-116544260D01*
X109655462Y-116544265D01*
X109847911Y-116691936D01*
X110057988Y-116813224D01*
X110282100Y-116906054D01*
X110516411Y-116968838D01*
X110696786Y-116992584D01*
X110756911Y-117000500D01*
X110756912Y-117000500D01*
X110999489Y-117000500D01*
X111047588Y-116994167D01*
X111239989Y-116968838D01*
X111474300Y-116906054D01*
X111698412Y-116813224D01*
X111908489Y-116691936D01*
X112100938Y-116544265D01*
X112272465Y-116372738D01*
X112420136Y-116180289D01*
X112541424Y-115970212D01*
X112634254Y-115746100D01*
X112697038Y-115511789D01*
X112728700Y-115271288D01*
X112728700Y-115028712D01*
X112697038Y-114788211D01*
X112634254Y-114553900D01*
X112541424Y-114329788D01*
X112420136Y-114119711D01*
X112272465Y-113927262D01*
X112272460Y-113927256D01*
X112100943Y-113755739D01*
X112100936Y-113755733D01*
X111908493Y-113608067D01*
X111908492Y-113608066D01*
X111908489Y-113608064D01*
X111698412Y-113486776D01*
X111698405Y-113486773D01*
X111474304Y-113393947D01*
X111239985Y-113331161D01*
X110999489Y-113299500D01*
X110999488Y-113299500D01*
X110756912Y-113299500D01*
X110756911Y-113299500D01*
X110516414Y-113331161D01*
X110282095Y-113393947D01*
X110057994Y-113486773D01*
X110057985Y-113486777D01*
X109847906Y-113608067D01*
X109655463Y-113755733D01*
X109655456Y-113755739D01*
X109483939Y-113927256D01*
X109483933Y-113927263D01*
X109336267Y-114119706D01*
X109214977Y-114329785D01*
X109214973Y-114329794D01*
X109122147Y-114553895D01*
X109059361Y-114788214D01*
X109027700Y-115028711D01*
X108400500Y-115028711D01*
X108400500Y-75028711D01*
X109027700Y-75028711D01*
X109027700Y-75271288D01*
X109059361Y-75511785D01*
X109122147Y-75746104D01*
X109214973Y-75970205D01*
X109214976Y-75970212D01*
X109336264Y-76180289D01*
X109336266Y-76180292D01*
X109336267Y-76180293D01*
X109483933Y-76372736D01*
X109483939Y-76372743D01*
X109655456Y-76544260D01*
X109655462Y-76544265D01*
X109847911Y-76691936D01*
X110057988Y-76813224D01*
X110282100Y-76906054D01*
X110516411Y-76968838D01*
X110696786Y-76992584D01*
X110756911Y-77000500D01*
X110756912Y-77000500D01*
X110999489Y-77000500D01*
X111047588Y-76994167D01*
X111239989Y-76968838D01*
X111474300Y-76906054D01*
X111698412Y-76813224D01*
X111908489Y-76691936D01*
X112100938Y-76544265D01*
X112272465Y-76372738D01*
X112420136Y-76180289D01*
X112541424Y-75970212D01*
X112634254Y-75746100D01*
X112697038Y-75511789D01*
X112728700Y-75271288D01*
X112728700Y-75028712D01*
X112697038Y-74788211D01*
X112634254Y-74553900D01*
X112541424Y-74329788D01*
X112420136Y-74119711D01*
X112272465Y-73927262D01*
X112272460Y-73927256D01*
X112100943Y-73755739D01*
X112100936Y-73755733D01*
X111908493Y-73608067D01*
X111908492Y-73608066D01*
X111908489Y-73608064D01*
X111698412Y-73486776D01*
X111698405Y-73486773D01*
X111474304Y-73393947D01*
X111239985Y-73331161D01*
X110999489Y-73299500D01*
X110999488Y-73299500D01*
X110756912Y-73299500D01*
X110756911Y-73299500D01*
X110516414Y-73331161D01*
X110282095Y-73393947D01*
X110057994Y-73486773D01*
X110057985Y-73486777D01*
X109847906Y-73608067D01*
X109655463Y-73755733D01*
X109655456Y-73755739D01*
X109483939Y-73927256D01*
X109483933Y-73927263D01*
X109336267Y-74119706D01*
X109214977Y-74329785D01*
X109214973Y-74329794D01*
X109122147Y-74553895D01*
X109059361Y-74788214D01*
X109027700Y-75028711D01*
X108400500Y-75028711D01*
X108400500Y-72908676D01*
X108420185Y-72841637D01*
X108436819Y-72820995D01*
X109070995Y-72186819D01*
X109132318Y-72153334D01*
X109158676Y-72150500D01*
X113965890Y-72150500D01*
X113965892Y-72150500D01*
X114093186Y-72116392D01*
X114207314Y-72050500D01*
X115300500Y-70957314D01*
X115366392Y-70843186D01*
X115400500Y-70715892D01*
X115400500Y-70584107D01*
X115400500Y-60108676D01*
X115420185Y-60041637D01*
X115436819Y-60020995D01*
X116070995Y-59386819D01*
X116132318Y-59353334D01*
X116158676Y-59350500D01*
X116290450Y-59350500D01*
X116357489Y-59370185D01*
G37*
G04 #@! TD.AperFunction*
G04 #@! TD*
M02*
