M48
; DRILL file {KiCad 8.0.6} date 2024-11-16T10:55:07+0100
; FORMAT={-:-/ absolute / metric / decimal}
; #@! TF.CreationDate,2024-11-16T10:55:07+01:00
; #@! TF.GenerationSoftware,Kicad,Pcbnew,8.0.6
; #@! TF.FileFunction,Plated,1,2,PTH
FMAT,2
METRIC
; #@! TA.AperFunction,Plated,PTH,ComponentDrill
T1C0.600
%
G90
G05
T1
X119.51Y-60.584
X119.51Y-63.124
X119.51Y-65.665
X119.51Y-68.204
X119.51Y-70.745
X119.51Y-73.284
X119.51Y-75.825
X119.51Y-78.364
X119.51Y-80.904
X122.05Y-80.904
X124.59Y-80.904
X127.13Y-80.904
X129.67Y-80.904
X132.21Y-80.904
X134.75Y-60.584
X134.75Y-63.124
X134.75Y-65.665
X134.75Y-68.204
X134.75Y-70.745
X134.75Y-73.284
X134.75Y-75.825
X134.75Y-78.364
X134.75Y-80.904
M30
