G04 #@! TF.GenerationSoftware,KiCad,Pcbnew,8.0.6*
G04 #@! TF.CreationDate,2024-11-16T10:55:05+01:00*
G04 #@! TF.ProjectId,MCUPCB,4d435550-4342-42e6-9b69-6361645f7063,rev?*
G04 #@! TF.SameCoordinates,Original*
G04 #@! TF.FileFunction,Soldermask,Bot*
G04 #@! TF.FilePolarity,Negative*
%FSLAX46Y46*%
G04 Gerber Fmt 4.6, Leading zero omitted, Abs format (unit mm)*
G04 Created by KiCad (PCBNEW 8.0.6) date 2024-11-16 10:55:05*
%MOMM*%
%LPD*%
G01*
G04 APERTURE LIST*
%ADD10C,3.200000*%
%ADD11R,3.500000X1.700000*%
%ADD12C,1.000000*%
%ADD13R,1.700000X3.500000*%
G04 APERTURE END LIST*
D10*
G04 #@! TO.C,REF\u002A\u002A*
X110878200Y-75150000D03*
G04 #@! TD*
G04 #@! TO.C,REF\u002A\u002A*
X110878200Y-115150000D03*
G04 #@! TD*
D11*
G04 #@! TO.C,U1*
X135650000Y-60584500D03*
D12*
X134750000Y-60584500D03*
D11*
X135650000Y-63124500D03*
D12*
X134750000Y-63124500D03*
D11*
X135650000Y-65664500D03*
D12*
X134750000Y-65664500D03*
D11*
X135650000Y-68204500D03*
D12*
X134750000Y-68204500D03*
D11*
X135650000Y-70744500D03*
D12*
X134750000Y-70744500D03*
D11*
X135600000Y-73284500D03*
D12*
X134750000Y-73284500D03*
D11*
X135600000Y-75824500D03*
D12*
X134750000Y-75824500D03*
D11*
X135600000Y-78364500D03*
D12*
X134750000Y-78364500D03*
D11*
X135600000Y-80904500D03*
D12*
X134750000Y-80904500D03*
X119510000Y-60584500D03*
D11*
X118610000Y-60584500D03*
D12*
X119510000Y-63124500D03*
D11*
X118610000Y-63124500D03*
D12*
X119510000Y-65664500D03*
D11*
X118610000Y-65664500D03*
D12*
X119510000Y-68204500D03*
D11*
X118610000Y-68204500D03*
D12*
X119510000Y-70744500D03*
D11*
X118610000Y-70744500D03*
D12*
X119510000Y-73284500D03*
D11*
X118610000Y-73284500D03*
D12*
X119510000Y-75824500D03*
D11*
X118610000Y-75824500D03*
D12*
X119510000Y-78364500D03*
D11*
X118610000Y-78364500D03*
D12*
X119510000Y-80904500D03*
D11*
X118610000Y-80904500D03*
D13*
X132210000Y-81804500D03*
D12*
X132210000Y-80904500D03*
D13*
X129670000Y-81754500D03*
D12*
X129670000Y-80904500D03*
D13*
X127130000Y-81754500D03*
D12*
X127130000Y-80904500D03*
D13*
X124590000Y-81754500D03*
D12*
X124590000Y-80904500D03*
D13*
X122050000Y-81754500D03*
D12*
X122050000Y-80904500D03*
G04 #@! TD*
M02*
