G04 #@! TF.GenerationSoftware,KiCad,Pcbnew,8.0.6*
G04 #@! TF.CreationDate,2024-11-16T10:55:05+01:00*
G04 #@! TF.ProjectId,MCUPCB,4d435550-4342-42e6-9b69-6361645f7063,rev?*
G04 #@! TF.SameCoordinates,Original*
G04 #@! TF.FileFunction,Copper,L1,Top*
G04 #@! TF.FilePolarity,Positive*
%FSLAX46Y46*%
G04 Gerber Fmt 4.6, Leading zero omitted, Abs format (unit mm)*
G04 Created by KiCad (PCBNEW 8.0.6) date 2024-11-16 10:55:05*
%MOMM*%
%LPD*%
G01*
G04 APERTURE LIST*
G04 #@! TA.AperFunction,SMDPad,CuDef*
%ADD10R,0.650000X3.000000*%
G04 #@! TD*
G04 #@! TA.AperFunction,ComponentPad*
%ADD11C,1.000000*%
G04 #@! TD*
G04 #@! TA.AperFunction,Conductor*
%ADD12C,0.400000*%
G04 #@! TD*
G04 APERTURE END LIST*
D10*
G04 #@! TO.P,J2,1,Pin_1*
G04 #@! TO.N,/ROW1M*
X122250200Y-117750000D03*
G04 #@! TO.P,J2,2,Pin_2*
G04 #@! TO.N,/ROW2M*
X123520200Y-114750000D03*
G04 #@! TO.P,J2,3,Pin_3*
G04 #@! TO.N,/PINAM*
X124790200Y-117750000D03*
G04 #@! TO.P,J2,4,Pin_4*
G04 #@! TO.N,/PINBM*
X126060200Y-114750000D03*
G04 #@! TO.P,J2,5,Pin_5*
G04 #@! TO.N,GND*
X127330200Y-117750000D03*
G04 #@! TD*
G04 #@! TO.P,J1,1,Pin_1*
G04 #@! TO.N,/COL0M*
X122250200Y-98700000D03*
G04 #@! TO.P,J1,2,Pin_2*
G04 #@! TO.N,/COL1M*
X123520200Y-95700000D03*
G04 #@! TO.P,J1,3,Pin_3*
G04 #@! TO.N,/COL2M*
X124790200Y-98700000D03*
G04 #@! TO.P,J1,4,Pin_4*
G04 #@! TO.N,/COL3M*
X126060200Y-95700000D03*
G04 #@! TO.P,J1,5,Pin_5*
G04 #@! TO.N,/ROW0M*
X127330200Y-98700000D03*
G04 #@! TD*
D11*
G04 #@! TO.P,U1,1,5V*
G04 #@! TO.N,unconnected-(U1-5V-Pad1)*
X134750000Y-60584500D03*
G04 #@! TO.P,U1,2,GND*
G04 #@! TO.N,GND*
X134750000Y-63124500D03*
G04 #@! TO.P,U1,3,3V3*
G04 #@! TO.N,unconnected-(U1-3V3-Pad3)*
X134750000Y-65664500D03*
G04 #@! TO.P,U1,4,GP29*
G04 #@! TO.N,unconnected-(U1-GP29-Pad4)*
X134750000Y-68204500D03*
G04 #@! TO.P,U1,5,GP28*
G04 #@! TO.N,unconnected-(U1-GP28-Pad5)*
X134750000Y-70744500D03*
G04 #@! TO.P,U1,6,GP27*
G04 #@! TO.N,unconnected-(U1-GP27-Pad6)*
X134750000Y-73284500D03*
G04 #@! TO.P,U1,7,GP26*
G04 #@! TO.N,unconnected-(U1-GP26-Pad7)*
X134750000Y-75824500D03*
G04 #@! TO.P,U1,8,GP15*
G04 #@! TO.N,/PINBM*
X134750000Y-78364500D03*
G04 #@! TO.P,U1,9,GP14*
G04 #@! TO.N,/PINAM*
X134750000Y-80904500D03*
G04 #@! TO.P,U1,10,GP0*
G04 #@! TO.N,unconnected-(U1-GP0-Pad10)*
X119510000Y-60584500D03*
G04 #@! TO.P,U1,11,GP1*
G04 #@! TO.N,unconnected-(U1-GP1-Pad11)*
X119510000Y-63124500D03*
G04 #@! TO.P,U1,12,GP2*
G04 #@! TO.N,unconnected-(U1-GP2-Pad12)*
X119510000Y-65664500D03*
G04 #@! TO.P,U1,13,GP3*
G04 #@! TO.N,unconnected-(U1-GP3-Pad13)*
X119510000Y-68204500D03*
G04 #@! TO.P,U1,14,GP4*
G04 #@! TO.N,unconnected-(U1-GP4-Pad14)*
X119510000Y-70744500D03*
G04 #@! TO.P,U1,15,GP5*
G04 #@! TO.N,unconnected-(U1-GP5-Pad15)*
X119510000Y-73284500D03*
G04 #@! TO.P,U1,16,GP6*
G04 #@! TO.N,unconnected-(U1-GP6-Pad16)*
X119510000Y-75824500D03*
G04 #@! TO.P,U1,17,GP7*
G04 #@! TO.N,/ROW1M*
X119510000Y-78364500D03*
G04 #@! TO.P,U1,18,GP8*
G04 #@! TO.N,/ROW2M*
X119510000Y-80904500D03*
G04 #@! TO.P,U1,19,GP13*
G04 #@! TO.N,/ROW0M*
X132210000Y-80904500D03*
G04 #@! TO.P,U1,20,GP12*
G04 #@! TO.N,/COL3M*
X129670000Y-80904500D03*
G04 #@! TO.P,U1,21,GP11*
G04 #@! TO.N,/COL2M*
X127130000Y-80904500D03*
G04 #@! TO.P,U1,22,GP10*
G04 #@! TO.N,/COL1M*
X124590000Y-80904500D03*
G04 #@! TO.P,U1,23,GP9*
G04 #@! TO.N,/COL0M*
X122050000Y-80904500D03*
G04 #@! TD*
D12*
G04 #@! TO.N,/PINBM*
X137200000Y-101356236D02*
X137200000Y-82546911D01*
X135975000Y-79589500D02*
X134750000Y-78364500D01*
X135606207Y-105203992D02*
X126060200Y-114750000D01*
X135975000Y-79589500D02*
G75*
G02*
X137199995Y-82546911I-2957400J-2957400D01*
G01*
X137200000Y-101356236D02*
G75*
G02*
X135606200Y-105203985I-5441600J36D01*
G01*
G04 #@! TO.N,/ROW2M*
X119355000Y-81059500D02*
X119510000Y-80904500D01*
X120793792Y-112023592D02*
X123520200Y-114750000D01*
X119200000Y-81433703D02*
X119200000Y-108175836D01*
X119355000Y-81059500D02*
G75*
G03*
X119200001Y-81433703I374200J-374200D01*
G01*
X119200000Y-108175836D02*
G75*
G03*
X120793800Y-112023584I5441600J36D01*
G01*
G04 #@! TO.N,/ROW1M*
X118055606Y-78744393D02*
X117717750Y-79082250D01*
X118593792Y-114093592D02*
X122250200Y-117750000D01*
X117000000Y-110245836D02*
X117000000Y-80815051D01*
X118972750Y-78364500D02*
X119510000Y-78364500D01*
X117000000Y-110245836D02*
G75*
G03*
X118593800Y-114093584I5441600J36D01*
G01*
X118972750Y-78364500D02*
G75*
G03*
X118055589Y-78744376I-50J-1297000D01*
G01*
X117717750Y-79082250D02*
G75*
G03*
X116999951Y-80815051I1732750J-1732850D01*
G01*
G04 #@! TO.N,/PINAM*
X135400000Y-82014119D02*
X135400000Y-99946036D01*
X135075000Y-81229500D02*
X134750000Y-80904500D01*
X126383992Y-111216007D02*
X133806207Y-103793792D01*
X124790200Y-115063763D02*
X124790200Y-117750000D01*
X135075000Y-81229500D02*
G75*
G02*
X135399992Y-82014119I-784600J-784600D01*
G01*
X135400000Y-99946036D02*
G75*
G02*
X133806200Y-103793785I-5441600J36D01*
G01*
X126383992Y-111216007D02*
G75*
G03*
X124790159Y-115063763I3847708J-3847793D01*
G01*
G04 #@! TO.N,/ROW0M*
X128101454Y-98498545D02*
X131987867Y-94612132D01*
X127615100Y-98700000D02*
X127330200Y-98700000D01*
X132210000Y-93782928D02*
X132210000Y-80904500D01*
X132200000Y-93807071D02*
X132200000Y-94100000D01*
X132205000Y-93795000D02*
G75*
G03*
X132199988Y-93807071I12100J-12100D01*
G01*
X128101454Y-98498545D02*
G75*
G02*
X127615100Y-98700002I-486354J486345D01*
G01*
X132200000Y-94100000D02*
G75*
G02*
X131987875Y-94612140I-724300J0D01*
G01*
X132210000Y-93782928D02*
G75*
G02*
X132204992Y-93794992I-17100J28D01*
G01*
G04 #@! TO.N,/COL3M*
X128076207Y-93683992D02*
X126060200Y-95700000D01*
X129670000Y-89836236D02*
X129670000Y-80904500D01*
X129670000Y-89836236D02*
G75*
G02*
X128076200Y-93683985I-5441600J36D01*
G01*
G04 #@! TO.N,/COL0M*
X122250200Y-81246262D02*
X122250200Y-98700000D01*
X122150100Y-81004600D02*
X122050000Y-80904500D01*
X122150100Y-81004600D02*
G75*
G02*
X122250215Y-81246262I-241700J-241700D01*
G01*
G04 #@! TO.N,/COL2M*
X124800000Y-98683270D02*
X124800000Y-94447558D01*
X124795100Y-98695100D02*
X124790200Y-98700000D01*
X127130000Y-88822441D02*
X127130000Y-80904500D01*
X127130000Y-88822441D02*
G75*
G02*
X125964988Y-91634988I-3977600J41D01*
G01*
X124800000Y-98683270D02*
G75*
G02*
X124795109Y-98695109I-16700J-30D01*
G01*
X125965000Y-91635000D02*
G75*
G03*
X124799954Y-94447558I2812500J-2812600D01*
G01*
G04 #@! TO.N,/COL1M*
X123520200Y-90836262D02*
X123520200Y-95700000D01*
X124590000Y-88253537D02*
X124590000Y-80904500D01*
X124590000Y-88253537D02*
G75*
G02*
X124055089Y-89544889I-1826300J37D01*
G01*
X124055100Y-89544900D02*
G75*
G03*
X123520185Y-90836262I1291400J-1291400D01*
G01*
G04 #@! TD*
G04 #@! TA.AperFunction,Conductor*
G04 #@! TO.N,GND*
G36*
X138008363Y-59370185D02*
G01*
X138029005Y-59386819D01*
X138663181Y-60020995D01*
X138696666Y-60082318D01*
X138699500Y-60108676D01*
X138699500Y-118691324D01*
X138679815Y-118758363D01*
X138663181Y-118779005D01*
X138029005Y-119413181D01*
X137967682Y-119446666D01*
X137941324Y-119449500D01*
X128276940Y-119449500D01*
X128209901Y-119429815D01*
X128164146Y-119377011D01*
X128153650Y-119312245D01*
X128155199Y-119297828D01*
X128155200Y-119297827D01*
X128155200Y-118000000D01*
X126505200Y-118000000D01*
X126505200Y-119297828D01*
X126506750Y-119312245D01*
X126494344Y-119381004D01*
X126446734Y-119432142D01*
X126383460Y-119449500D01*
X125737444Y-119449500D01*
X125670405Y-119429815D01*
X125624650Y-119377011D01*
X125614154Y-119312247D01*
X125615700Y-119297873D01*
X125615699Y-116874498D01*
X125635384Y-116807460D01*
X125688187Y-116761705D01*
X125739694Y-116750499D01*
X126381200Y-116750499D01*
X126448239Y-116770184D01*
X126493994Y-116822988D01*
X126505200Y-116874499D01*
X126505200Y-117500000D01*
X127080200Y-117500000D01*
X127580200Y-117500000D01*
X128155200Y-117500000D01*
X128155200Y-116202172D01*
X128155199Y-116202155D01*
X128148798Y-116142627D01*
X128148796Y-116142620D01*
X128098554Y-116007913D01*
X128098550Y-116007906D01*
X128012390Y-115892812D01*
X128012387Y-115892809D01*
X127897293Y-115806649D01*
X127897286Y-115806645D01*
X127762579Y-115756403D01*
X127762572Y-115756401D01*
X127703044Y-115750000D01*
X127580200Y-115750000D01*
X127580200Y-117500000D01*
X127080200Y-117500000D01*
X127080200Y-115750000D01*
X127009699Y-115750000D01*
X126942660Y-115730315D01*
X126896905Y-115677511D01*
X126885699Y-115626002D01*
X126885699Y-114966518D01*
X126905384Y-114899480D01*
X126922018Y-114878838D01*
X136154788Y-105646068D01*
X136154932Y-105645907D01*
X136256642Y-105544199D01*
X136543946Y-105212631D01*
X136806865Y-104861412D01*
X136806866Y-104861409D01*
X136806879Y-104861392D01*
X136964994Y-104615358D01*
X137044059Y-104492332D01*
X137254319Y-104107271D01*
X137436573Y-103708192D01*
X137589893Y-103297127D01*
X137713498Y-102876173D01*
X137725437Y-102821295D01*
X137806757Y-102447478D01*
X137828251Y-102297992D01*
X137869198Y-102013212D01*
X137900499Y-101575604D01*
X137900500Y-101356241D01*
X137900500Y-101277313D01*
X137900500Y-82477918D01*
X137900500Y-82472077D01*
X137900495Y-82471971D01*
X137900495Y-82355070D01*
X137900495Y-82355063D01*
X137870391Y-81972545D01*
X137810368Y-81593569D01*
X137720796Y-81220470D01*
X137622541Y-80918073D01*
X137602228Y-80855555D01*
X137587136Y-80819119D01*
X137455391Y-80501057D01*
X137281195Y-80159177D01*
X137080713Y-79832019D01*
X136855180Y-79521599D01*
X136855175Y-79521592D01*
X136605991Y-79229837D01*
X136605986Y-79229831D01*
X136526187Y-79150032D01*
X136526175Y-79150018D01*
X135788318Y-78412161D01*
X135754833Y-78350838D01*
X135752596Y-78336634D01*
X135736159Y-78169745D01*
X135736024Y-78168368D01*
X135678814Y-77979773D01*
X135678811Y-77979769D01*
X135678811Y-77979766D01*
X135585913Y-77805967D01*
X135585909Y-77805960D01*
X135460883Y-77653616D01*
X135308539Y-77528590D01*
X135308532Y-77528586D01*
X135134733Y-77435688D01*
X135134727Y-77435686D01*
X134946132Y-77378476D01*
X134946129Y-77378475D01*
X134750000Y-77359159D01*
X134553870Y-77378475D01*
X134365266Y-77435688D01*
X134191467Y-77528586D01*
X134191460Y-77528590D01*
X134039116Y-77653616D01*
X134010353Y-77688665D01*
X133952607Y-77727999D01*
X133882762Y-77729870D01*
X133822994Y-77693682D01*
X133792278Y-77630926D01*
X133790500Y-77610000D01*
X133790500Y-76578999D01*
X133810185Y-76511960D01*
X133862989Y-76466205D01*
X133932147Y-76456261D01*
X133995703Y-76485286D01*
X134010354Y-76500335D01*
X134039117Y-76535383D01*
X134191460Y-76660409D01*
X134191467Y-76660413D01*
X134365266Y-76753311D01*
X134365269Y-76753311D01*
X134365273Y-76753314D01*
X134553868Y-76810524D01*
X134750000Y-76829841D01*
X134946132Y-76810524D01*
X135134727Y-76753314D01*
X135308538Y-76660410D01*
X135460883Y-76535383D01*
X135585910Y-76383038D01*
X135678814Y-76209227D01*
X135736024Y-76020632D01*
X135755341Y-75824500D01*
X135736024Y-75628368D01*
X135678814Y-75439773D01*
X135678811Y-75439769D01*
X135678811Y-75439766D01*
X135585913Y-75265967D01*
X135585909Y-75265960D01*
X135460883Y-75113616D01*
X135308539Y-74988590D01*
X135308532Y-74988586D01*
X135134733Y-74895688D01*
X135134727Y-74895686D01*
X134946132Y-74838476D01*
X134946129Y-74838475D01*
X134750000Y-74819159D01*
X134553870Y-74838475D01*
X134365266Y-74895688D01*
X134191467Y-74988586D01*
X134191460Y-74988590D01*
X134039116Y-75113616D01*
X134010353Y-75148665D01*
X133952607Y-75187999D01*
X133882762Y-75189870D01*
X133822994Y-75153682D01*
X133792278Y-75090926D01*
X133790500Y-75070000D01*
X133790500Y-74038999D01*
X133810185Y-73971960D01*
X133862989Y-73926205D01*
X133932147Y-73916261D01*
X133995703Y-73945286D01*
X134010354Y-73960335D01*
X134039117Y-73995383D01*
X134191460Y-74120409D01*
X134191467Y-74120413D01*
X134365266Y-74213311D01*
X134365269Y-74213311D01*
X134365273Y-74213314D01*
X134553868Y-74270524D01*
X134750000Y-74289841D01*
X134946132Y-74270524D01*
X135134727Y-74213314D01*
X135308538Y-74120410D01*
X135460883Y-73995383D01*
X135585910Y-73843038D01*
X135678814Y-73669227D01*
X135736024Y-73480632D01*
X135755341Y-73284500D01*
X135736024Y-73088368D01*
X135678814Y-72899773D01*
X135678811Y-72899769D01*
X135678811Y-72899766D01*
X135585913Y-72725967D01*
X135585909Y-72725960D01*
X135460883Y-72573616D01*
X135308539Y-72448590D01*
X135308532Y-72448586D01*
X135134733Y-72355688D01*
X135134727Y-72355686D01*
X134946132Y-72298476D01*
X134946129Y-72298475D01*
X134750000Y-72279159D01*
X134553870Y-72298475D01*
X134365266Y-72355688D01*
X134191467Y-72448586D01*
X134191460Y-72448590D01*
X134039116Y-72573616D01*
X134010353Y-72608665D01*
X133952607Y-72647999D01*
X133882762Y-72649870D01*
X133822994Y-72613682D01*
X133792278Y-72550926D01*
X133790500Y-72530000D01*
X133790500Y-71498999D01*
X133810185Y-71431960D01*
X133862989Y-71386205D01*
X133932147Y-71376261D01*
X133995703Y-71405286D01*
X134010354Y-71420335D01*
X134039117Y-71455383D01*
X134191460Y-71580409D01*
X134191467Y-71580413D01*
X134365266Y-71673311D01*
X134365269Y-71673311D01*
X134365273Y-71673314D01*
X134553868Y-71730524D01*
X134750000Y-71749841D01*
X134946132Y-71730524D01*
X135134727Y-71673314D01*
X135308538Y-71580410D01*
X135460883Y-71455383D01*
X135585910Y-71303038D01*
X135678814Y-71129227D01*
X135736024Y-70940632D01*
X135755341Y-70744500D01*
X135736024Y-70548368D01*
X135678814Y-70359773D01*
X135678811Y-70359769D01*
X135678811Y-70359766D01*
X135585913Y-70185967D01*
X135585909Y-70185960D01*
X135460883Y-70033616D01*
X135308539Y-69908590D01*
X135308532Y-69908586D01*
X135134733Y-69815688D01*
X135134727Y-69815686D01*
X134946132Y-69758476D01*
X134946129Y-69758475D01*
X134750000Y-69739159D01*
X134553870Y-69758475D01*
X134365266Y-69815688D01*
X134191467Y-69908586D01*
X134191460Y-69908590D01*
X134039116Y-70033616D01*
X134010353Y-70068665D01*
X133952607Y-70107999D01*
X133882762Y-70109870D01*
X133822994Y-70073682D01*
X133792278Y-70010926D01*
X133790500Y-69990000D01*
X133790500Y-68958999D01*
X133810185Y-68891960D01*
X133862989Y-68846205D01*
X133932147Y-68836261D01*
X133995703Y-68865286D01*
X134010354Y-68880335D01*
X134039117Y-68915383D01*
X134191460Y-69040409D01*
X134191467Y-69040413D01*
X134365266Y-69133311D01*
X134365269Y-69133311D01*
X134365273Y-69133314D01*
X134553868Y-69190524D01*
X134750000Y-69209841D01*
X134946132Y-69190524D01*
X135134727Y-69133314D01*
X135308538Y-69040410D01*
X135460883Y-68915383D01*
X135585910Y-68763038D01*
X135678814Y-68589227D01*
X135736024Y-68400632D01*
X135755341Y-68204500D01*
X135736024Y-68008368D01*
X135678814Y-67819773D01*
X135678811Y-67819769D01*
X135678811Y-67819766D01*
X135585913Y-67645967D01*
X135585909Y-67645960D01*
X135460883Y-67493616D01*
X135308539Y-67368590D01*
X135308532Y-67368586D01*
X135134733Y-67275688D01*
X135134727Y-67275686D01*
X134946132Y-67218476D01*
X134946129Y-67218475D01*
X134750000Y-67199159D01*
X134553870Y-67218475D01*
X134365266Y-67275688D01*
X134191467Y-67368586D01*
X134191460Y-67368590D01*
X134039116Y-67493616D01*
X134010353Y-67528665D01*
X133952607Y-67567999D01*
X133882762Y-67569870D01*
X133822994Y-67533682D01*
X133792278Y-67470926D01*
X133790500Y-67450000D01*
X133790500Y-66418999D01*
X133810185Y-66351960D01*
X133862989Y-66306205D01*
X133932147Y-66296261D01*
X133995703Y-66325286D01*
X134010354Y-66340335D01*
X134039117Y-66375383D01*
X134191460Y-66500409D01*
X134191467Y-66500413D01*
X134365266Y-66593311D01*
X134365269Y-66593311D01*
X134365273Y-66593314D01*
X134553868Y-66650524D01*
X134750000Y-66669841D01*
X134946132Y-66650524D01*
X135134727Y-66593314D01*
X135308538Y-66500410D01*
X135460883Y-66375383D01*
X135585910Y-66223038D01*
X135678814Y-66049227D01*
X135736024Y-65860632D01*
X135755341Y-65664500D01*
X135736024Y-65468368D01*
X135678814Y-65279773D01*
X135678811Y-65279769D01*
X135678811Y-65279766D01*
X135585913Y-65105967D01*
X135585909Y-65105960D01*
X135460883Y-64953616D01*
X135308539Y-64828590D01*
X135308532Y-64828586D01*
X135134733Y-64735688D01*
X135134727Y-64735686D01*
X134946132Y-64678476D01*
X134946129Y-64678475D01*
X134750000Y-64659159D01*
X134553870Y-64678475D01*
X134365266Y-64735688D01*
X134191467Y-64828586D01*
X134191460Y-64828590D01*
X134039116Y-64953616D01*
X134010353Y-64988665D01*
X133952607Y-65027999D01*
X133882762Y-65029870D01*
X133822994Y-64993682D01*
X133792278Y-64930926D01*
X133790500Y-64910000D01*
X133790500Y-63986575D01*
X134241476Y-63986575D01*
X134365462Y-64052848D01*
X134553969Y-64110031D01*
X134553965Y-64110031D01*
X134750000Y-64129338D01*
X134946032Y-64110031D01*
X135134537Y-64052848D01*
X135258523Y-63986576D01*
X135258523Y-63986575D01*
X134750001Y-63478053D01*
X134750000Y-63478053D01*
X134241476Y-63986575D01*
X133790500Y-63986575D01*
X133790500Y-63762321D01*
X133810185Y-63695282D01*
X133862989Y-63649527D01*
X133872834Y-63648111D01*
X134396447Y-63124500D01*
X134356951Y-63085004D01*
X134450000Y-63085004D01*
X134450000Y-63163996D01*
X134470444Y-63240296D01*
X134509940Y-63308705D01*
X134565795Y-63364560D01*
X134634204Y-63404056D01*
X134710504Y-63424500D01*
X134789496Y-63424500D01*
X134865796Y-63404056D01*
X134934205Y-63364560D01*
X134990060Y-63308705D01*
X135029556Y-63240296D01*
X135050000Y-63163996D01*
X135050000Y-63124499D01*
X135103553Y-63124499D01*
X135103553Y-63124500D01*
X135612076Y-63633023D01*
X135678348Y-63509037D01*
X135735531Y-63320532D01*
X135754838Y-63124500D01*
X135735531Y-62928467D01*
X135678348Y-62739962D01*
X135612075Y-62615976D01*
X135103553Y-63124499D01*
X135050000Y-63124499D01*
X135050000Y-63085004D01*
X135029556Y-63008704D01*
X134990060Y-62940295D01*
X134934205Y-62884440D01*
X134865796Y-62844944D01*
X134789496Y-62824500D01*
X134710504Y-62824500D01*
X134634204Y-62844944D01*
X134565795Y-62884440D01*
X134509940Y-62940295D01*
X134470444Y-63008704D01*
X134450000Y-63085004D01*
X134356951Y-63085004D01*
X133872966Y-62601019D01*
X133863492Y-62599700D01*
X133810484Y-62554181D01*
X133790501Y-62487230D01*
X133790500Y-62486677D01*
X133790500Y-62262423D01*
X134241476Y-62262423D01*
X134750000Y-62770947D01*
X134750001Y-62770947D01*
X135258522Y-62262423D01*
X135134537Y-62196151D01*
X134946030Y-62138968D01*
X134946034Y-62138968D01*
X134750000Y-62119661D01*
X134553967Y-62138968D01*
X134365466Y-62196149D01*
X134241476Y-62262423D01*
X133790500Y-62262423D01*
X133790500Y-61338999D01*
X133810185Y-61271960D01*
X133862989Y-61226205D01*
X133932147Y-61216261D01*
X133995703Y-61245286D01*
X134010354Y-61260335D01*
X134039117Y-61295383D01*
X134191460Y-61420409D01*
X134191467Y-61420413D01*
X134365266Y-61513311D01*
X134365269Y-61513311D01*
X134365273Y-61513314D01*
X134553868Y-61570524D01*
X134750000Y-61589841D01*
X134946132Y-61570524D01*
X135134727Y-61513314D01*
X135308538Y-61420410D01*
X135460883Y-61295383D01*
X135585910Y-61143038D01*
X135678814Y-60969227D01*
X135736024Y-60780632D01*
X135755341Y-60584500D01*
X135736024Y-60388368D01*
X135678814Y-60199773D01*
X135678811Y-60199769D01*
X135678811Y-60199766D01*
X135585913Y-60025967D01*
X135585909Y-60025960D01*
X135460883Y-59873616D01*
X135308539Y-59748590D01*
X135308532Y-59748586D01*
X135134733Y-59655688D01*
X135134727Y-59655686D01*
X134946132Y-59598476D01*
X134946129Y-59598475D01*
X134940315Y-59597903D01*
X134875527Y-59571742D01*
X134835169Y-59514707D01*
X134832052Y-59444907D01*
X134867167Y-59384503D01*
X134929364Y-59352672D01*
X134952469Y-59350500D01*
X137941324Y-59350500D01*
X138008363Y-59370185D01*
G37*
G04 #@! TD.AperFunction*
G04 #@! TD*
M02*
